QLD-Beginners-Regular.ufo
<glyph name="exclam" format="2">
  <advance width="246"/>
  <unicode hex="0021"/>
  <outline>
    <contour>
      <point x="200" y="629" type="line" smooth="yes"/>
      <point x="202" y="643"/>
      <point x="192" y="650"/>
      <point x="180" y="650" type="curve" smooth="yes"/>
      <point x="167" y="650"/>
      <point x="152" y="643"/>
      <point x="149" y="629" type="curve" smooth="yes"/>
      <point x="73" y="202" type="line" smooth="yes"/>
      <point x="70" y="185"/>
      <point x="82" y="176"/>
      <point x="94" y="175" type="curve" smooth="yes"/>
      <point x="106" y="174"/>
      <point x="121" y="183"/>
      <point x="124" y="202" type="curve" smooth="yes"/>
    </contour>
    <contour>
      <point x="71" y="-6.0" type="curve" smooth="yes"/>
      <point x="94" y="-6.0"/>
      <point x="113" y="14"/>
      <point x="113" y="35" type="curve" smooth="yes"/>
      <point x="113" y="56"/>
      <point x="94" y="74"/>
      <point x="71" y="74" type="curve" smooth="yes"/>
      <point x="49" y="74"/>
      <point x="33.0" y="55"/>
      <point x="33.0" y="35" type="curve" smooth="yes"/>
      <point x="33.0" y="15"/>
      <point x="49" y="-6.0"/>
    </contour>
  </outline>
</glyph>
<glyph name="quotedbl" format="2">
  <advance width="340"/>
  <unicode hex="0022"/>
  <outline>
    <contour>
      <point x="147" y="500" type="curve" smooth="yes"/>
      <point x="159" y="500"/>
      <point x="173" y="508"/>
      <point x="176" y="524" type="curve" smooth="yes"/>
      <point x="193" y="620" type="line" smooth="yes"/>
      <point x="197" y="640"/>
      <point x="184" y="650"/>
      <point x="171" y="650" type="curve" smooth="yes"/>
      <point x="159" y="650"/>
      <point x="145" y="641"/>
      <point x="142" y="624" type="curve" smooth="yes"/>
      <point x="125" y="528" type="line" smooth="yes"/>
      <point x="122" y="510"/>
      <point x="134" y="500"/>
    </contour>
    <contour>
      <point x="256" y="500" type="curve" smooth="yes"/>
      <point x="268" y="500"/>
      <point x="282" y="507"/>
      <point x="284" y="521" type="curve" smooth="yes"/>
      <point x="301" y="620" type="line" smooth="yes"/>
      <point x="304" y="640"/>
      <point x="292" y="650"/>
      <point x="278" y="650" type="curve" smooth="yes"/>
      <point x="266" y="650"/>
      <point x="254" y="642"/>
      <point x="251" y="628" type="curve" smooth="yes"/>
      <point x="233" y="528" type="line" smooth="yes"/>
      <point x="230" y="509"/>
      <point x="242" y="500"/>
    </contour>
  </outline>
</glyph>
<glyph name="dollar" format="2">
  <advance width="477"/>
  <unicode hex="0024"/>
  <outline>
    <contour>
      <point x="110" y="0" type="line" smooth="yes"/>
      <point x="208" y="0"/>
      <point x="382" y="17"/>
      <point x="382" y="153" type="curve" smooth="yes"/>
      <point x="382" y="236"/>
      <point x="318" y="262"/>
      <point x="232" y="312" type="curve" smooth="yes"/>
      <point x="166" y="350"/>
      <point x="101" y="381"/>
      <point x="101" y="425" type="curve" smooth="yes"/>
      <point x="101" y="482"/>
      <point x="210" y="519"/>
      <point x="287" y="519" type="curve" smooth="yes"/>
      <point x="430" y="519" type="line" smooth="yes"/>
      <point x="445" y="519"/>
      <point x="453" y="532"/>
      <point x="453" y="545" type="curve" smooth="yes"/>
      <point x="453" y="557"/>
      <point x="445" y="569"/>
      <point x="426" y="569" type="curve" smooth="yes"/>
      <point x="288" y="569" type="line" smooth="yes"/>
      <point x="156" y="569"/>
      <point x="51" y="503"/>
      <point x="51" y="420" type="curve" smooth="yes"/>
      <point x="51" y="349"/>
      <point x="128" y="315"/>
      <point x="206" y="269" type="curve" smooth="yes"/>
      <point x="282" y="225"/>
      <point x="332" y="206"/>
      <point x="332" y="152" type="curve" smooth="yes"/>
      <point x="332" y="57"/>
      <point x="175" y="50"/>
      <point x="110" y="50" type="curve" smooth="yes"/>
      <point x="7" y="50" type="line" smooth="yes"/>
      <point x="-9" y="50"/>
      <point x="-20" y="37"/>
      <point x="-20" y="24" type="curve" smooth="yes"/>
      <point x="-20" y="12"/>
      <point x="-12" y="0"/>
      <point x="7" y="0" type="curve" smooth="yes"/>
    </contour>
    <contour>
      <point x="305" y="618" type="line" smooth="yes"/>
      <point x="309" y="639"/>
      <point x="299" y="650"/>
      <point x="287" y="650" type="curve" smooth="yes"/>
      <point x="276" y="650"/>
      <point x="263" y="641"/>
      <point x="260" y="622" type="curve" smooth="yes"/>
      <point x="141" y="-52" type="line" smooth="yes"/>
      <point x="138" y="-71"/>
      <point x="148" y="-80"/>
      <point x="159" y="-80" type="curve" smooth="yes"/>
      <point x="170" y="-80"/>
      <point x="183" y="-71"/>
      <point x="186" y="-54" type="curve" smooth="yes"/>
    </contour>
  </outline>
</glyph>
<glyph name="period" format="2">
  <advance width="202"/>
  <unicode hex="002E"/>
  <outline>
    <contour>
      <point x="59" y="-12" type="curve" smooth="yes"/>
      <point x="79" y="-12"/>
      <point x="97" y="6"/>
      <point x="97" y="27" type="curve" smooth="yes"/>
      <point x="97" y="47"/>
      <point x="79" y="64"/>
      <point x="59" y="64" type="curve" smooth="yes"/>
      <point x="38" y="64"/>
      <point x="22" y="47"/>
      <point x="22" y="27" type="curve" smooth="yes"/>
      <point x="22" y="7"/>
      <point x="38" y="-12"/>
    </contour>
  </outline>
</glyph>
<glyph name="slash" format="2">
  <advance width="385"/>
  <unicode hex="002F"/>
  <outline>
    <contour>
      <point x="345" y="616" type="line" smooth="yes"/>
      <point x="354" y="637"/>
      <point x="339" y="650"/>
      <point x="324" y="650" type="curve" smooth="yes"/>
      <point x="313" y="650"/>
      <point x="302" y="644"/>
      <point x="295" y="627" type="curve" smooth="yes"/>
      <point x="38" y="31" type="line" smooth="yes"/>
      <point x="30" y="12"/>
      <point x="44" y="0"/>
      <point x="60" y="0" type="curve" smooth="yes"/>
      <point x="71" y="0"/>
      <point x="82" y="6"/>
      <point x="88" y="20" type="curve" smooth="yes"/>
    </contour>
  </outline>
</glyph>
<glyph name="four" format="2">
  <advance width="404"/>
  <unicode hex="0034"/>
  <outline>
    <contour>
      <point x="27" y="162" type="line" smooth="yes"/>
      <point x="24" y="147"/>
      <point x="33" y="135"/>
      <point x="51" y="135" type="curve" smooth="yes"/>
      <point x="68" y="135"/>
      <point x="74" y="148"/>
      <point x="77" y="160" type="curve" smooth="yes"/>
      <point x="164" y="540" type="line" smooth="yes"/>
      <point x="168" y="558"/>
      <point x="155" y="568"/>
      <point x="143" y="568" type="curve" smooth="yes"/>
      <point x="131" y="568"/>
      <point x="118" y="562"/>
      <point x="114" y="544" type="curve" smooth="yes"/>
    </contour>
    <contour>
      <point x="220" y="0" type="curve" smooth="yes"/>
      <point x="232" y="-1"/>
      <point x="246" y="6"/>
      <point x="250" y="26" type="curve" smooth="yes"/>
      <point x="300" y="302" type="line" smooth="yes"/>
      <point x="303" y="319"/>
      <point x="292" y="329"/>
      <point x="280" y="331" type="curve" smooth="yes"/>
      <point x="267" y="333"/>
      <point x="253" y="326"/>
      <point x="250" y="309" type="curve" smooth="yes"/>
      <point x="200" y="31" type="line" smooth="yes"/>
      <point x="196" y="11"/>
      <point x="207" y="1"/>
    </contour>
    <contour>
      <point x="397" y="158" type="curve" smooth="yes"/>
      <point x="397" y="170"/>
      <point x="387" y="180"/>
      <point x="371" y="180" type="curve" smooth="yes"/>
      <point x="51" y="180" type="line"/>
      <point x="51" y="135" type="line"/>
      <point x="371" y="135" type="line" smooth="yes"/>
      <point x="387" y="135"/>
      <point x="397" y="146"/>
    </contour>
  </outline>
</glyph>
<glyph name="six" format="2">
  <advance width="398"/>
  <unicode hex="0036"/>
  <outline>
    <contour>
      <point x="339" y="563" type="curve" smooth="yes"/>
      <point x="331" y="575"/>
      <point x="314" y="574"/>
      <point x="298" y="565" type="curve" smooth="yes"/>
      <point x="253" y="539"/>
      <point x="166" y="460"/>
      <point x="110" y="382" type="curve" smooth="yes"/>
      <point x="57" y="309"/>
      <point x="21" y="209"/>
      <point x="21" y="114" type="curve"/>
      <point x="72" y="135" type="line"/>
      <point x="72" y="228"/>
      <point x="101" y="291"/>
      <point x="149" y="358" type="curve" smooth="yes"/>
      <point x="200" y="429"/>
      <point x="274" y="487"/>
      <point x="326" y="525" type="curve" smooth="yes"/>
      <point x="341" y="536"/>
      <point x="347" y="551"/>
    </contour>
    <contour>
      <point x="138" y="0" type="curve" smooth="yes"/>
      <point x="240" y="0"/>
      <point x="348" y="149"/>
      <point x="348" y="257" type="curve" smooth="yes"/>
      <point x="348" y="321"/>
      <point x="310" y="353"/>
      <point x="238" y="353" type="curve" smooth="yes"/>
      <point x="151" y="353"/>
      <point x="90" y="306"/>
      <point x="55" y="244" type="curve"/>
      <point x="21" y="114" type="line"/>
      <point x="21" y="50.0"/>
      <point x="65" y="0"/>
    </contour>
    <contour>
      <point x="136" y="50" type="curve" smooth="yes"/>
      <point x="97.0" y="50"/>
      <point x="72.0" y="84.0"/>
      <point x="72" y="135" type="curve" smooth="yes"/>
      <point x="72" y="215"/>
      <point x="133" y="303"/>
      <point x="236" y="303" type="curve" smooth="yes"/>
      <point x="277" y="303"/>
      <point x="298" y="289"/>
      <point x="298" y="251" type="curve" smooth="yes"/>
      <point x="298" y="173"/>
      <point x="206" y="50"/>
    </contour>
  </outline>
</glyph>
<glyph name="seven" format="2">
  <advance width="334"/>
  <unicode hex="0037"/>
  <outline>
    <contour>
      <point x="171" y="0" type="curve" smooth="yes"/>
      <point x="183" y="0"/>
      <point x="196" y="8"/>
      <point x="200" y="26" type="curve" smooth="yes"/>
      <point x="301" y="539" type="line" smooth="yes"/>
      <point x="305" y="557"/>
      <point x="296" y="568"/>
      <point x="278" y="568" type="curve"/>
      <point x="253" y="549" type="line"/>
      <point x="151" y="33" type="line" smooth="yes"/>
      <point x="147" y="12"/>
      <point x="158" y="0"/>
    </contour>
    <contour>
      <point x="5" y="546" type="curve" smooth="yes"/>
      <point x="5" y="534"/>
      <point x="14" y="523"/>
      <point x="32" y="523" type="curve" smooth="yes"/>
      <point x="278" y="523" type="line"/>
      <point x="278" y="568" type="line"/>
      <point x="32" y="568" type="line" smooth="yes"/>
      <point x="14" y="568"/>
      <point x="5" y="557"/>
    </contour>
  </outline>
</glyph>
<glyph name="eight" format="2">
  <advance width="365"/>
  <unicode hex="0038"/>
  <outline>
    <contour>
      <point x="143" y="45" type="curve" smooth="yes"/>
      <point x="200" y="45"/>
      <point x="246" y="105"/>
      <point x="246" y="149" type="curve" smooth="yes"/>
      <point x="246" y="179"/>
      <point x="214" y="231"/>
      <point x="180" y="268" type="curve" smooth="yes"/>
      <point x="148" y="302" type="line" smooth="yes"/>
      <point x="113" y="339"/>
      <point x="63" y="386"/>
      <point x="63" y="442" type="curve" smooth="yes"/>
      <point x="63" y="529"/>
      <point x="150" y="568"/>
      <point x="223" y="568" type="curve" smooth="yes"/>
      <point x="282" y="568"/>
      <point x="356" y="542"/>
      <point x="356" y="488" type="curve" smooth="yes"/>
      <point x="356" y="431"/>
      <point x="275" y="367"/>
      <point x="174" y="296" type="curve" smooth="yes"/>
      <point x="81" y="230"/>
      <point x="60" y="178"/>
      <point x="60" y="139" type="curve" smooth="yes"/>
      <point x="60" y="90"/>
      <point x="93" y="45"/>
    </contour>
    <contour>
      <point x="137" y="-4" type="curve" smooth="yes"/>
      <point x="40" y="-4"/>
      <point x="11" y="74"/>
      <point x="11" y="132" type="curve" smooth="yes"/>
      <point x="11" y="185"/>
      <point x="36" y="261"/>
      <point x="148" y="340" type="curve" smooth="yes"/>
      <point x="209" y="383"/>
      <point x="309" y="462"/>
      <point x="309" y="488" type="curve" smooth="yes"/>
      <point x="309" y="507"/>
      <point x="249" y="518"/>
      <point x="213" y="518" type="curve" smooth="yes"/>
      <point x="172" y="518"/>
      <point x="114" y="504"/>
      <point x="114" y="447" type="curve" smooth="yes"/>
      <point x="114" y="405"/>
      <point x="145" y="373"/>
      <point x="176" y="340" type="curve" smooth="yes"/>
      <point x="206" y="309" type="line" smooth="yes"/>
      <point x="256" y="257"/>
      <point x="297" y="198"/>
      <point x="297" y="149" type="curve" smooth="yes"/>
      <point x="297" y="84"/>
      <point x="241" y="-4"/>
    </contour>
  </outline>
</glyph>
<glyph name="colon" format="2">
  <advance width="245"/>
  <unicode hex="003A"/>
  <outline>
    <contour>
      <point x="71" y="-11" type="curve" smooth="yes"/>
      <point x="92" y="-11"/>
      <point x="110" y="7"/>
      <point x="110" y="28" type="curve" smooth="yes"/>
      <point x="110" y="48"/>
      <point x="92" y="65"/>
      <point x="71" y="65" type="curve" smooth="yes"/>
      <point x="50" y="65"/>
      <point x="34" y="48"/>
      <point x="34" y="28" type="curve" smooth="yes"/>
      <point x="34" y="8"/>
      <point x="50" y="-11"/>
    </contour>
    <contour>
      <point x="110" y="235" type="curve" smooth="yes"/>
      <point x="130" y="235"/>
      <point x="148" y="254"/>
      <point x="148" y="274" type="curve" smooth="yes"/>
      <point x="148" y="295"/>
      <point x="130" y="311"/>
      <point x="110" y="311" type="curve" smooth="yes"/>
      <point x="89" y="311"/>
      <point x="73" y="294"/>
      <point x="73" y="274" type="curve" smooth="yes"/>
      <point x="73" y="255"/>
      <point x="89" y="235"/>
    </contour>
  </outline>
</glyph>
<glyph name="semicolon" format="2">
  <advance width="245"/>
  <unicode hex="003B"/>
  <outline>
    <contour>
      <point x="55" y="-102" type="curve" smooth="yes"/>
      <point x="66" y="-103"/>
      <point x="79" y="-95"/>
      <point x="82" y="-78" type="curve" smooth="yes"/>
      <point x="100" y="21" type="line" smooth="yes"/>
      <point x="103" y="39"/>
      <point x="92" y="49"/>
      <point x="79" y="50" type="curve" smooth="yes"/>
      <point x="66" y="52"/>
      <point x="53" y="45"/>
      <point x="50" y="28" type="curve" smooth="yes"/>
      <point x="33" y="-71" type="line" smooth="yes"/>
      <point x="30" y="-90"/>
      <point x="42" y="-101"/>
    </contour>
    <contour>
      <point x="109" y="234" type="curve" smooth="yes"/>
      <point x="129" y="234"/>
      <point x="147" y="253"/>
      <point x="147" y="273" type="curve" smooth="yes"/>
      <point x="147" y="294"/>
      <point x="129" y="310"/>
      <point x="109" y="310" type="curve" smooth="yes"/>
      <point x="88" y="310"/>
      <point x="72" y="293"/>
      <point x="72" y="273" type="curve" smooth="yes"/>
      <point x="72" y="254"/>
      <point x="88" y="234"/>
    </contour>
  </outline>
</glyph>
<glyph name="equal" format="2">
  <advance width="460"/>
  <unicode hex="003D"/>
  <outline>
    <contour>
      <point x="334" y="248" type="line" smooth="yes"/>
      <point x="352" y="248"/>
      <point x="361" y="262"/>
      <point x="361" y="273" type="curve" smooth="yes"/>
      <point x="361" y="284"/>
      <point x="352" y="298"/>
      <point x="334" y="298" type="curve" smooth="yes"/>
      <point x="107" y="298" type="line" smooth="yes"/>
      <point x="89" y="298"/>
      <point x="80" y="284"/>
      <point x="80" y="273" type="curve" smooth="yes"/>
      <point x="80" y="262"/>
      <point x="89" y="248"/>
      <point x="107" y="248" type="curve" smooth="yes"/>
    </contour>
    <contour>
      <point x="308" y="97" type="line" smooth="yes"/>
      <point x="326" y="97"/>
      <point x="335" y="110"/>
      <point x="335" y="122" type="curve" smooth="yes"/>
      <point x="335" y="133"/>
      <point x="326" y="147"/>
      <point x="308" y="147" type="curve" smooth="yes"/>
      <point x="81" y="147" type="line" smooth="yes"/>
      <point x="63" y="147"/>
      <point x="54" y="133"/>
      <point x="54" y="122" type="curve" smooth="yes"/>
      <point x="54" y="111"/>
      <point x="63" y="97"/>
      <point x="81" y="97" type="curve" smooth="yes"/>
    </contour>
  </outline>
</glyph>
<glyph name="F" format="2">
  <advance width="421"/>
  <unicode hex="0046"/>
  <outline>
    <contour>
      <point x="13" y="27" type="line" smooth="yes"/>
      <point x="10" y="12"/>
      <point x="18" y="0"/>
      <point x="36" y="0" type="curve" smooth="yes"/>
      <point x="58" y="0"/>
      <point x="62" y="15"/>
      <point x="64" y="25" type="curve" smooth="yes"/>
      <point x="168" y="619" type="line" smooth="yes"/>
      <point x="171" y="637"/>
      <point x="169" y="650"/>
      <point x="148" y="650" type="curve" smooth="yes"/>
      <point x="126" y="650"/>
      <point x="121" y="639"/>
      <point x="118" y="623" type="curve" smooth="yes"/>
    </contour>
    <contour>
      <point x="388" y="327" type="curve" smooth="yes"/>
      <point x="388" y="339"/>
      <point x="382.0" y="350.0"/>
      <point x="362" y="350" type="curve" smooth="yes"/>
      <point x="100" y="350" type="line"/>
      <point x="93" y="304" type="line"/>
      <point x="362" y="304" type="line" smooth="yes"/>
      <point x="382.0" y="304.0"/>
      <point x="388" y="315"/>
    </contour>
    <contour>
      <point x="463" y="627" type="curve" smooth="yes"/>
      <point x="463" y="639"/>
      <point x="457.0" y="650.0"/>
      <point x="437" y="650" type="curve" smooth="yes"/>
      <point x="148" y="650" type="line"/>
      <point x="141" y="604" type="line"/>
      <point x="437" y="604" type="line" smooth="yes"/>
      <point x="457.0" y="604.0"/>
      <point x="463" y="615"/>
    </contour>
  </outline>
</glyph>
<glyph name="G" format="2">
  <advance width="503"/>
  <unicode hex="0047"/>
  <outline>
    <contour>
      <point x="134" y="-4" type="curve" smooth="yes"/>
      <point x="228" y="-4"/>
      <point x="327" y="134"/>
      <point x="419" y="275" type="curve"/>
      <point x="431" y="350" type="line"/>
      <point x="407" y="350"/>
      <point x="404" y="343"/>
      <point x="346" y="255" type="curve" smooth="yes"/>
      <point x="309" y="199"/>
      <point x="206" y="42"/>
      <point x="137" y="42" type="curve" smooth="yes"/>
      <point x="101" y="42"/>
      <point x="92" y="89"/>
      <point x="92" y="135" type="curve" smooth="yes"/>
      <point x="92" y="200"/>
      <point x="110" y="310"/>
      <point x="121" y="364" type="curve" smooth="yes"/>
      <point x="142" y="468"/>
      <point x="185" y="604"/>
      <point x="422" y="604" type="curve" smooth="yes"/>
      <point x="478" y="604" type="line" smooth="yes"/>
      <point x="493" y="604"/>
      <point x="503" y="614"/>
      <point x="503" y="627" type="curve" smooth="yes"/>
      <point x="503" y="639"/>
      <point x="494" y="650"/>
      <point x="482" y="650" type="curve" smooth="yes"/>
      <point x="423" y="650" type="line" smooth="yes"/>
      <point x="150" y="650"/>
      <point x="94" y="498"/>
      <point x="66" y="338" type="curve" smooth="yes"/>
      <point x="62" y="318"/>
      <point x="42" y="203"/>
      <point x="42" y="140" type="curve" smooth="yes"/>
      <point x="42" y="70"/>
      <point x="67" y="-4"/>
    </contour>
    <contour>
      <point x="368" y="0" type="curve" smooth="yes"/>
      <point x="391" y="-1"/>
      <point x="396" y="16"/>
      <point x="398" y="27" type="curve" smooth="yes"/>
      <point x="450" y="323" type="line" smooth="yes"/>
      <point x="453" y="340"/>
      <point x="449" y="350"/>
      <point x="432" y="350" type="curve"/>
      <point x="412" y="350"/>
      <point x="402" y="342"/>
      <point x="399" y="323" type="curve" smooth="yes"/>
      <point x="347" y="27" type="line" smooth="yes"/>
      <point x="345" y="15"/>
      <point x="348" y="1"/>
    </contour>
  </outline>
</glyph>
<glyph name="H" format="2">
  <advance width="517"/>
  <unicode hex="0048"/>
  <outline>
    <contour>
      <point x="36" y="0" type="curve" smooth="yes"/>
      <point x="58" y="0"/>
      <point x="62" y="15"/>
      <point x="64" y="25" type="curve" smooth="yes"/>
      <point x="168" y="619" type="line" smooth="yes"/>
      <point x="171" y="637"/>
      <point x="165" y="650"/>
      <point x="148" y="650" type="curve" smooth="yes"/>
      <point x="129" y="650"/>
      <point x="121" y="639"/>
      <point x="118" y="623" type="curve" smooth="yes"/>
      <point x="13" y="27" type="line" smooth="yes"/>
      <point x="10" y="12"/>
      <point x="18" y="0"/>
    </contour>
    <contour>
      <point x="92" y="304" type="line"/>
      <point x="426" y="304" type="line"/>
      <point x="434" y="350" type="line"/>
      <point x="100" y="350" type="line"/>
    </contour>
    <contour>
      <point x="372" y="0" type="curve" smooth="yes"/>
      <point x="391" y="0"/>
      <point x="397" y="13"/>
      <point x="399" y="22" type="curve" smooth="yes"/>
      <point x="504" y="621" type="line" smooth="yes"/>
      <point x="507" y="638"/>
      <point x="501" y="650"/>
      <point x="481" y="650" type="curve" smooth="yes"/>
      <point x="463" y="650"/>
      <point x="456" y="638"/>
      <point x="454" y="628" type="curve" smooth="yes"/>
      <point x="349" y="27" type="line" smooth="yes"/>
      <point x="347" y="15"/>
      <point x="349" y="0"/>
    </contour>
  </outline>
</glyph>
<glyph name="J" format="2">
  <advance width="416"/>
  <unicode hex="004A"/>
  <outline>
    <contour>
      <point x="-45" y="24" type="curve" smooth="yes"/>
      <point x="-45" y="9"/>
      <point x="-32" y="0"/>
      <point x="-20" y="0" type="curve" smooth="yes"/>
      <point x="11" y="0"/>
      <point x="68" y="1"/>
      <point x="87" y="3" type="curve" smooth="yes"/>
      <point x="199" y="17"/>
      <point x="238" y="84"/>
      <point x="269" y="257" type="curve" smooth="yes"/>
      <point x="334" y="621" type="line"/>
      <point x="283" y="621" type="line"/>
      <point x="221" y="271" type="line" smooth="yes"/>
      <point x="197" y="135"/>
      <point x="173" y="58"/>
      <point x="83" y="49" type="curve" smooth="yes"/>
      <point x="57" y="46"/>
      <point x="4" y="46"/>
      <point x="-20" y="46" type="curve" smooth="yes"/>
      <point x="-32" y="46"/>
      <point x="-45" y="38"/>
    </contour>
    <contour>
      <point x="151" y="627" type="curve" smooth="yes"/>
      <point x="151" y="615"/>
      <point x="157" y="604"/>
      <point x="177" y="604" type="curve" smooth="yes"/>
      <point x="441" y="604" type="line" smooth="yes"/>
      <point x="461" y="604"/>
      <point x="467" y="615"/>
      <point x="467" y="627" type="curve" smooth="yes"/>
      <point x="467" y="639"/>
      <point x="461" y="650"/>
      <point x="441" y="650" type="curve" smooth="yes"/>
      <point x="177" y="650" type="line" smooth="yes"/>
      <point x="157" y="650"/>
      <point x="151" y="639"/>
    </contour>
  </outline>
</glyph>
<glyph name="L" format="2">
  <advance width="396"/>
  <unicode hex="004C"/>
  <outline>
    <contour>
      <point x="13" y="27" type="line" smooth="yes"/>
      <point x="10" y="12"/>
      <point x="18" y="0"/>
      <point x="36" y="0" type="curve" smooth="yes"/>
      <point x="58" y="0"/>
      <point x="61" y="15"/>
      <point x="63" y="25" type="curve" smooth="yes"/>
      <point x="168" y="619" type="line" smooth="yes"/>
      <point x="171" y="637"/>
      <point x="168" y="650"/>
      <point x="148" y="650" type="curve" smooth="yes"/>
      <point x="128" y="650"/>
      <point x="121" y="639"/>
      <point x="118" y="623" type="curve" smooth="yes"/>
    </contour>
    <contour>
      <point x="359" y="24" type="curve" smooth="yes"/>
      <point x="359" y="36"/>
      <point x="351" y="46"/>
      <point x="333" y="46" type="curve" smooth="yes"/>
      <point x="36" y="46" type="line"/>
      <point x="36" y="0" type="line"/>
      <point x="333" y="0" type="line" smooth="yes"/>
      <point x="351" y="0"/>
      <point x="359" y="12"/>
    </contour>
  </outline>
</glyph>
<glyph name="N" format="2">
  <advance width="517"/>
  <unicode hex="004E"/>
  <outline>
    <contour>
      <point x="348" y="18" type="line" smooth="yes"/>
      <point x="352" y="8"/>
      <point x="361" y="0"/>
      <point x="375" y="0" type="curve"/>
      <point x="370" y="67" type="line"/>
      <point x="351" y="149" type="line"/>
      <point x="178" y="630" type="line" smooth="yes"/>
      <point x="175" y="639"/>
      <point x="166" y="650"/>
      <point x="148" y="650" type="curve"/>
      <point x="148" y="590" type="line"/>
      <point x="166" y="517" type="line"/>
    </contour>
    <contour>
      <point x="36" y="0" type="curve" smooth="yes"/>
      <point x="58" y="0"/>
      <point x="62" y="16"/>
      <point x="64" y="28" type="curve" smooth="yes"/>
      <point x="150" y="516" type="line"/>
      <point x="160" y="612" type="line"/>
      <point x="148" y="650" type="line"/>
      <point x="126" y="650"/>
      <point x="121" y="639"/>
      <point x="118" y="623" type="curve" smooth="yes"/>
      <point x="13" y="27" type="line" smooth="yes"/>
      <point x="10" y="12"/>
      <point x="18" y="0"/>
    </contour>
    <contour>
      <point x="485" y="650" type="curve" smooth="yes"/>
      <point x="465" y="650"/>
      <point x="458" y="639"/>
      <point x="455" y="623" type="curve" smooth="yes"/>
      <point x="372" y="149" type="line"/>
      <point x="364" y="48" type="line"/>
      <point x="374" y="0" type="line"/>
      <point x="396" y="0"/>
      <point x="398" y="15"/>
      <point x="400" y="25" type="curve" smooth="yes"/>
      <point x="504" y="619" type="line" smooth="yes"/>
      <point x="507" y="637"/>
      <point x="504" y="650"/>
    </contour>
  </outline>
</glyph>
<glyph name="P" format="2">
  <advance width="467"/>
  <unicode hex="0050"/>
  <outline>
    <contour>
      <point x="479" y="476" type="curve" smooth="yes"/>
      <point x="496" y="606"/>
      <point x="361" y="651"/>
      <point x="148" y="650" type="curve"/>
      <point x="143" y="604" type="line"/>
      <point x="354" y="605"/>
      <point x="440" y="571"/>
      <point x="428" y="481" type="curve" smooth="yes"/>
      <point x="415" y="384"/>
      <point x="287" y="350"/>
      <point x="98" y="350" type="curve"/>
      <point x="91" y="304" type="line"/>
      <point x="311" y="304"/>
      <point x="461" y="339"/>
    </contour>
    <contour>
      <point x="36" y="-4" type="curve" smooth="yes"/>
      <point x="58" y="-4"/>
      <point x="61" y="15"/>
      <point x="63" y="25" type="curve" smooth="yes"/>
      <point x="168" y="619" type="line" smooth="yes"/>
      <point x="171" y="637"/>
      <point x="169" y="650"/>
      <point x="148" y="650" type="curve" smooth="yes"/>
      <point x="126" y="650"/>
      <point x="121" y="639"/>
      <point x="118" y="623" type="curve" smooth="yes"/>
      <point x="13" y="27" type="line" smooth="yes"/>
      <point x="10" y="12"/>
      <point x="18" y="-4"/>
    </contour>
  </outline>
</glyph>
<glyph name="Q" format="2">
  <advance width="497"/>
  <unicode hex="0051"/>
  <outline>
    <contour>
      <point x="333" y="-45" type="curve" smooth="yes"/>
      <point x="347" y="-37"/>
      <point x="347" y="-18"/>
      <point x="339" y="-6" type="curve" smooth="yes"/>
      <point x="231" y="151" type="line" smooth="yes"/>
      <point x="221" y="165"/>
      <point x="203" y="172"/>
      <point x="189" y="160" type="curve" smooth="yes"/>
      <point x="177" y="151"/>
      <point x="179" y="139"/>
      <point x="190" y="123" type="curve" smooth="yes"/>
      <point x="294" y="-29" type="line" smooth="yes"/>
      <point x="304" y="-44"/>
      <point x="320" y="-52"/>
    </contour>
    <contour>
      <point x="163" y="-6" type="curve" smooth="yes"/>
      <point x="321" y="-6"/>
      <point x="460" y="242"/>
      <point x="477" y="436" type="curve" smooth="yes"/>
      <point x="487" y="551"/>
      <point x="440" y="658"/>
      <point x="304" y="656" type="curve" smooth="yes"/>
      <point x="178" y="654"/>
      <point x="102" y="566"/>
      <point x="65" y="413" type="curve" smooth="yes"/>
      <point x="14" y="202"/>
      <point x="51" y="-6"/>
    </contour>
    <contour>
      <point x="167" y="40" type="curve" smooth="yes"/>
      <point x="97" y="40"/>
      <point x="75" y="225"/>
      <point x="113" y="394" type="curve" smooth="yes"/>
      <point x="144" y="533"/>
      <point x="198" y="606"/>
      <point x="301" y="608" type="curve" smooth="yes"/>
      <point x="408" y="610"/>
      <point x="435" y="530"/>
      <point x="427" y="430" type="curve" smooth="yes"/>
      <point x="414" y="265"/>
      <point x="278" y="40"/>
    </contour>
  </outline>
</glyph>
<glyph name="S" format="2">
  <advance width="395"/>
  <unicode hex="0053"/>
  <outline>
    <contour>
      <point x="78.0" y="0.0" type="line" smooth="yes"/>
      <point x="250" y="0.0"/>
      <point x="348" y="83"/>
      <point x="348" y="183" type="curve" smooth="yes"/>
      <point x="348.0" y="264.0"/>
      <point x="300" y="321"/>
      <point x="237" y="363" type="curve" smooth="yes"/>
      <point x="207" y="383" type="line" smooth="yes"/>
      <point x="140" y="427"/>
      <point x="112" y="460"/>
      <point x="112" y="500" type="curve" smooth="yes"/>
      <point x="112" y="577"/>
      <point x="195" y="604"/>
      <point x="301" y="604.0" type="curve" smooth="yes"/>
      <point x="387" y="604" type="line" smooth="yes"/>
      <point x="400" y="604"/>
      <point x="410" y="613"/>
      <point x="410" y="628" type="curve"/>
      <point x="410" y="650"/>
      <point x="390.0" y="650.0"/>
      <point x="386" y="650" type="curve" smooth="yes"/>
      <point x="294" y="650" type="line" smooth="yes"/>
      <point x="150" y="650"/>
      <point x="60" y="591"/>
      <point x="60" y="497" type="curve" smooth="yes"/>
      <point x="60" y="445"/>
      <point x="97" y="395"/>
      <point x="161" y="352" type="curve" smooth="yes"/>
      <point x="192" y="331" type="line" smooth="yes"/>
      <point x="252" y="290"/>
      <point x="296.0" y="246.0"/>
      <point x="296" y="182" type="curve" smooth="yes"/>
      <point x="296" y="105"/>
      <point x="223" y="46"/>
      <point x="84.0" y="46.0" type="curve" smooth="yes"/>
      <point x="-2" y="46" type="line" smooth="yes"/>
      <point x="-15" y="46"/>
      <point x="-26" y="37"/>
      <point x="-26" y="22" type="curve"/>
      <point x="-26" y="0"/>
      <point x="-4" y="0"/>
      <point x="-2" y="0" type="curve" smooth="yes"/>
    </contour>
  </outline>
</glyph>
<glyph name="T" format="2">
  <advance width="445"/>
  <unicode hex="0054"/>
  <outline>
    <contour>
      <point x="167" y="0" type="curve" smooth="yes"/>
      <point x="189" y="0"/>
      <point x="192" y="15"/>
      <point x="194" y="25" type="curve" smooth="yes"/>
      <point x="298" y="621" type="line"/>
      <point x="247" y="621" type="line"/>
      <point x="144" y="27" type="line" smooth="yes"/>
      <point x="141" y="12"/>
      <point x="149" y="0"/>
    </contour>
    <contour>
      <point x="37" y="627" type="curve" smooth="yes"/>
      <point x="37" y="615"/>
      <point x="43" y="604"/>
      <point x="63" y="604" type="curve" smooth="yes"/>
      <point x="487" y="604" type="line" smooth="yes"/>
      <point x="507" y="604"/>
      <point x="513" y="615"/>
      <point x="513" y="627" type="curve" smooth="yes"/>
      <point x="513" y="639"/>
      <point x="507" y="650"/>
      <point x="487" y="650" type="curve" smooth="yes"/>
      <point x="63" y="650" type="line" smooth="yes"/>
      <point x="43" y="650"/>
      <point x="37" y="639"/>
    </contour>
  </outline>
</glyph>
<glyph name="W" format="2">
  <advance width="780"/>
  <unicode hex="0057"/>
  <outline>
    <contour>
      <point x="518" y="25" type="curve" smooth="yes"/>
      <point x="805" y="607" type="line" smooth="yes"/>
      <point x="816" y="629"/>
      <point x="809" y="643"/>
      <point x="797" y="648" type="curve" smooth="yes"/>
      <point x="783" y="654"/>
      <point x="768" y="645"/>
      <point x="759" y="627" type="curve" smooth="yes"/>
      <point x="526" y="155" type="line"/>
      <point x="473" y="31" type="line"/>
      <point x="486" y="0" type="line"/>
      <point x="505" y="0"/>
      <point x="511" y="11"/>
    </contour>
    <contour>
      <point x="119" y="29" type="line" smooth="yes"/>
      <point x="120" y="13"/>
      <point x="129" y="0"/>
      <point x="147" y="0" type="curve"/>
      <point x="161" y="37" type="line"/>
      <point x="162" y="151" type="line"/>
      <point x="136" y="626" type="line" smooth="yes"/>
      <point x="135" y="636"/>
      <point x="131" y="650"/>
      <point x="109" y="650" type="curve"/>
      <point x="91" y="650"/>
      <point x="85" y="639"/>
      <point x="86" y="624" type="curve" smooth="yes"/>
    </contour>
    <contour>
      <point x="178" y="26" type="curve" smooth="yes"/>
      <point x="416" y="510" type="line"/>
      <point x="460" y="619" type="line"/>
      <point x="449" y="650" type="line"/>
      <point x="430.0" y="650.0"/>
      <point x="422" y="637"/>
      <point x="417" y="626" type="curve" smooth="yes"/>
      <point x="182" y="147" type="line"/>
      <point x="133" y="40" type="line"/>
      <point x="147" y="0" type="line"/>
      <point x="165" y="0"/>
      <point x="172" y="15"/>
    </contour>
    <contour>
      <point x="462" y="22" type="line" smooth="yes"/>
      <point x="463" y="8"/>
      <point x="470" y="0"/>
      <point x="486" y="0" type="curve"/>
      <point x="501" y="30" type="line"/>
      <point x="505" y="157" type="line"/>
      <point x="477" y="626" type="line" smooth="yes"/>
      <point x="476" y="638"/>
      <point x="471" y="650"/>
      <point x="449" y="650" type="curve"/>
      <point x="435" y="617" type="line"/>
      <point x="434" y="511" type="line"/>
    </contour>
  </outline>
</glyph>
<glyph name="Y" format="2">
  <advance width="439"/>
  <unicode hex="0059"/>
  <outline>
    <contour>
      <point x="460" y="646" type="curve" smooth="yes"/>
      <point x="449" y="654"/>
      <point x="431" y="650"/>
      <point x="422" y="637" type="curve" smooth="yes"/>
      <point x="255" y="410" type="line"/>
      <point x="203" y="333" type="line"/>
      <point x="229" y="291" type="line"/>
      <point x="463" y="609" type="line" smooth="yes"/>
      <point x="473" y="623"/>
      <point x="471" y="638"/>
    </contour>
    <contour>
      <point x="172" y="0" type="curve" smooth="yes"/>
      <point x="194" y="0"/>
      <point x="198" y="15"/>
      <point x="200" y="25" type="curve" smooth="yes"/>
      <point x="257" y="350" type="line"/>
      <point x="206" y="350" type="line"/>
      <point x="149" y="27" type="line" smooth="yes"/>
      <point x="146" y="12"/>
      <point x="154" y="0"/>
    </contour>
    <contour>
      <point x="100" y="648" type="curve" smooth="yes"/>
      <point x="87" y="643"/>
      <point x="83" y="628"/>
      <point x="89" y="613" type="curve" smooth="yes"/>
      <point x="205" y="307" type="line"/>
      <point x="237" y="349" type="line"/>
      <point x="219" y="411" type="line"/>
      <point x="136" y="630" type="line" smooth="yes"/>
      <point x="130" y="647"/>
      <point x="113" y="653"/>
    </contour>
  </outline>
</glyph>
<glyph name="underscore" format="2">
  <advance width="522"/>
  <unicode hex="005F"/>
  <outline>
    <contour>
      <point x="339" y="-77" type="line" smooth="yes"/>
      <point x="357" y="-77"/>
      <point x="366" y="-66"/>
      <point x="366" y="-54" type="curve" smooth="yes"/>
      <point x="366" y="-43"/>
      <point x="357" y="-32"/>
      <point x="339" y="-32" type="curve" smooth="yes"/>
      <point x="50" y="-32" type="line" smooth="yes"/>
      <point x="31" y="-32"/>
      <point x="23" y="-43"/>
      <point x="23" y="-55" type="curve" smooth="yes"/>
      <point x="23" y="-66"/>
      <point x="33" y="-77"/>
      <point x="50" y="-77" type="curve" smooth="yes"/>
    </contour>
  </outline>
</glyph>
<glyph name="a" format="2">
  <advance width="395"/>
  <unicode hex="0061"/>
  <outline>
    <contour>
      <point x="43" y="-4" type="curve" smooth="yes"/>
      <point x="101" y="-4"/>
      <point x="153" y="50"/>
      <point x="213" y="126" type="curve" smooth="yes"/>
      <point x="243" y="163"/>
      <point x="285" y="235"/>
      <point x="304" y="300" type="curve"/>
      <point x="273" y="300" type="line"/>
      <point x="245" y="253"/>
      <point x="212" y="205"/>
      <point x="171" y="153" type="curve" smooth="yes"/>
      <point x="110" y="77"/>
      <point x="73" y="47"/>
      <point x="54" y="47" type="curve" smooth="yes"/>
      <point x="40" y="47"/>
      <point x="40" y="62"/>
      <point x="40" y="78" type="curve" smooth="yes"/>
      <point x="40" y="116"/>
      <point x="64" y="206"/>
      <point x="90" y="245" type="curve" smooth="yes"/>
      <point x="120" y="290"/>
      <point x="171" y="300"/>
      <point x="205" y="300" type="curve" smooth="yes"/>
      <point x="293" y="300" type="line"/>
      <point x="293" y="350" type="line"/>
      <point x="205" y="350" type="line"/>
      <point x="148" y="350"/>
      <point x="89" y="333"/>
      <point x="51" y="276" type="curve" smooth="yes"/>
      <point x="19" y="228"/>
      <point x="-10" y="131"/>
      <point x="-10" y="73" type="curve" smooth="yes"/>
      <point x="-10" y="22"/>
      <point x="10" y="-4"/>
    </contour>
    <contour>
      <point x="253" y="0" type="curve" smooth="yes"/>
      <point x="279" y="0"/>
      <point x="281" y="18"/>
      <point x="282" y="23" type="curve" smooth="yes"/>
      <point x="334" y="316" type="line" smooth="yes"/>
      <point x="338" y="339"/>
      <point x="330" y="350"/>
      <point x="307" y="350" type="curve" smooth="yes"/>
      <point x="273" y="350" type="line"/>
      <point x="273" y="223" type="line"/>
      <point x="231" y="23" type="line" smooth="yes"/>
      <point x="229" y="15"/>
      <point x="231" y="0"/>
    </contour>
  </outline>
</glyph>
<glyph name="c" format="2">
  <advance width="301"/>
  <unicode hex="0063"/>
  <outline>
    <contour>
      <point x="67" y="-4" type="curve" smooth="yes"/>
      <point x="139" y="-4"/>
      <point x="216" y="71"/>
      <point x="246" y="135" type="curve" smooth="yes"/>
      <point x="252" y="147"/>
      <point x="244" y="160"/>
      <point x="233" y="165" type="curve" smooth="yes"/>
      <point x="218" y="172"/>
      <point x="205" y="162"/>
      <point x="200" y="151" type="curve" smooth="yes"/>
      <point x="185" y="119"/>
      <point x="125" y="47"/>
      <point x="75" y="47" type="curve" smooth="yes"/>
      <point x="51" y="47"/>
      <point x="42" y="61"/>
      <point x="42" y="94" type="curve" smooth="yes"/>
      <point x="42" y="116"/>
      <point x="61" y="207"/>
      <point x="87" y="245" type="curve" smooth="yes"/>
      <point x="122" y="296"/>
      <point x="168" y="318"/>
      <point x="259" y="296" type="curve" smooth="yes"/>
      <point x="272" y="293"/>
      <point x="281" y="310"/>
      <point x="281" y="319" type="curve" smooth="yes"/>
      <point x="281" y="333"/>
      <point x="276" y="342"/>
      <point x="259" y="346" type="curve" smooth="yes"/>
      <point x="159" y="367"/>
      <point x="87" y="334"/>
      <point x="47" y="276" type="curve" smooth="yes"/>
      <point x="14" y="229"/>
      <point x="-8" y="131"/>
      <point x="-8" y="86" type="curve" smooth="yes"/>
      <point x="-8" y="22"/>
      <point x="19" y="-4"/>
    </contour>
  </outline>
</glyph>
<glyph name="i" format="2">
  <advance width="173"/>
  <unicode hex="0069"/>
  <outline>
    <contour>
      <point x="27" y="0" type="curve" smooth="yes"/>
      <point x="39" y="0"/>
      <point x="55" y="10"/>
      <point x="58" y="28" type="curve" smooth="yes"/>
      <point x="110" y="320" type="line" smooth="yes"/>
      <point x="114" y="340"/>
      <point x="101" y="350"/>
      <point x="89" y="350" type="curve" smooth="yes"/>
      <point x="76" y="350"/>
      <point x="60" y="341"/>
      <point x="57" y="323" type="curve" smooth="yes"/>
      <point x="5" y="28" type="line" smooth="yes"/>
      <point x="2" y="9"/>
      <point x="14" y="0"/>
    </contour>
    <contour>
      <point x="108" y="427" type="curve" smooth="yes"/>
      <point x="127" y="427"/>
      <point x="142" y="444"/>
      <point x="142" y="463" type="curve" smooth="yes"/>
      <point x="142" y="483"/>
      <point x="126" y="498"/>
      <point x="108" y="498" type="curve" smooth="yes"/>
      <point x="88" y="498"/>
      <point x="75" y="481"/>
      <point x="75" y="463" type="curve" smooth="yes"/>
      <point x="75" y="444"/>
      <point x="89" y="427"/>
    </contour>
  </outline>
</glyph>
<glyph name="j" format="2">
  <advance width="207"/>
  <unicode hex="006A"/>
  <outline>
    <contour>
      <point x="-250" y="-277" type="curve" smooth="yes"/>
      <point x="-250" y="-292"/>
      <point x="-236" y="-300"/>
      <point x="-212" y="-300" type="curve" smooth="yes"/>
      <point x="-193" y="-300"/>
      <point x="-143" y="-299"/>
      <point x="-110" y="-294" type="curve" smooth="yes"/>
      <point x="-56" y="-286"/>
      <point x="-17" y="-257"/>
      <point x="8" y="-217" type="curve" smooth="yes"/>
      <point x="42" y="-163"/>
      <point x="51" y="-87"/>
      <point x="66" y="-3" type="curve" smooth="yes"/>
      <point x="123" y="317" type="line" smooth="yes"/>
      <point x="127" y="338"/>
      <point x="114" y="350"/>
      <point x="100" y="350" type="curve" smooth="yes"/>
      <point x="88" y="350"/>
      <point x="74" y="341"/>
      <point x="70" y="320" type="curve" smooth="yes"/>
      <point x="15" y="-3" type="line" smooth="yes"/>
      <point x="3" y="-71"/>
      <point x="-5" y="-142"/>
      <point x="-33" y="-189" type="curve" smooth="yes"/>
      <point x="-51" y="-219"/>
      <point x="-78" y="-240"/>
      <point x="-126" y="-246" type="curve" smooth="yes"/>
      <point x="-147" y="-248"/>
      <point x="-192" y="-250"/>
      <point x="-211" y="-250" type="curve" smooth="yes"/>
      <point x="-237" y="-250"/>
      <point x="-250" y="-263"/>
    </contour>
    <contour>
      <point x="123" y="426" type="curve" smooth="yes"/>
      <point x="142" y="426"/>
      <point x="157" y="443"/>
      <point x="157" y="463" type="curve" smooth="yes"/>
      <point x="157" y="484"/>
      <point x="142" y="499"/>
      <point x="123" y="499" type="curve" smooth="yes"/>
      <point x="104" y="499"/>
      <point x="90" y="484"/>
      <point x="90" y="463" type="curve" smooth="yes"/>
      <point x="90" y="443"/>
      <point x="104" y="426"/>
    </contour>
  </outline>
</glyph>
<glyph name="l" format="2">
  <advance width="167"/>
  <unicode hex="006C"/>
  <outline>
    <contour>
      <point x="30" y="0" type="curve" smooth="yes"/>
      <point x="41" y="0"/>
      <point x="53" y="7"/>
      <point x="56" y="22" type="curve" smooth="yes"/>
      <point x="162" y="624" type="line" smooth="yes"/>
      <point x="165" y="640"/>
      <point x="151" y="650"/>
      <point x="137" y="650" type="curve" smooth="yes"/>
      <point x="126" y="650"/>
      <point x="114" y="644"/>
      <point x="111" y="629" type="curve" smooth="yes"/>
      <point x="5" y="27" type="line" smooth="yes"/>
      <point x="2" y="9"/>
      <point x="16" y="0"/>
    </contour>
  </outline>
</glyph>
<glyph name="m" format="2">
  <advance width="622"/>
  <unicode hex="006D"/>
  <outline>
    <contour>
      <point x="493" y="0" type="curve"/>
      <point x="514" y="0"/>
      <point x="520" y="11"/>
      <point x="522" y="23" type="curve" smooth="yes"/>
      <point x="561" y="234" type="line" smooth="yes"/>
      <point x="572" y="291"/>
      <point x="564" y="354"/>
      <point x="503" y="354" type="curve" smooth="yes"/>
      <point x="431.0" y="354"/>
      <point x="354" y="236.0"/>
      <point x="280" y="109" type="curve"/>
      <point x="275" y="14" type="line"/>
      <point x="349" y="146"/>
      <point x="452" y="305"/>
      <point x="496" y="305" type="curve" smooth="yes"/>
      <point x="521" y="305"/>
      <point x="515" y="261"/>
      <point x="510" y="234" type="curve" smooth="yes"/>
      <point x="473" y="30" type="line" smooth="yes"/>
      <point x="470" y="15"/>
      <point x="471" y="0"/>
    </contour>
    <contour>
      <point x="12" y="0" type="curve" smooth="yes"/>
      <point x="27" y="-2"/>
      <point x="32" y="5"/>
      <point x="36" y="11" type="curve"/>
      <point x="94" y="323" type="line" smooth="yes"/>
      <point x="97" y="340"/>
      <point x="91" y="350"/>
      <point x="74" y="350" type="curve" smooth="yes"/>
      <point x="55" y="350"/>
      <point x="46" y="342"/>
      <point x="43" y="323" type="curve" smooth="yes"/>
      <point x="-7" y="36" type="line" smooth="yes"/>
      <point x="-11" y="15"/>
      <point x="-10" y="3"/>
    </contour>
    <contour>
      <point x="252" y="0" type="curve" smooth="yes"/>
      <point x="266" y="0"/>
      <point x="270" y="6"/>
      <point x="275" y="14" type="curve"/>
      <point x="318" y="233" type="line" smooth="yes"/>
      <point x="329" y="290"/>
      <point x="323" y="353"/>
      <point x="262" y="353" type="curve" smooth="yes"/>
      <point x="195" y="353"/>
      <point x="117" y="238"/>
      <point x="42" y="109" type="curve"/>
      <point x="36" y="11" type="line"/>
      <point x="120" y="155"/>
      <point x="220" y="304"/>
      <point x="255" y="304" type="curve" smooth="yes"/>
      <point x="280" y="304"/>
      <point x="274" y="260"/>
      <point x="269" y="233" type="curve" smooth="yes"/>
      <point x="235" y="36" type="line" smooth="yes"/>
      <point x="231" y="15"/>
      <point x="231" y="0"/>
    </contour>
  </outline>
</glyph>
<glyph name="n" format="2">
  <advance width="396"/>
  <unicode hex="006E"/>
  <outline>
    <contour>
      <point x="267" y="0" type="curve" smooth="yes"/>
      <point x="288.0" y="0.0"/>
      <point x="294" y="11"/>
      <point x="296" y="23" type="curve" smooth="yes"/>
      <point x="335" y="234" type="line" smooth="yes"/>
      <point x="346" y="291"/>
      <point x="338" y="354"/>
      <point x="278" y="354" type="curve" smooth="yes"/>
      <point x="199.0" y="354"/>
      <point x="120.0" y="242.0"/>
      <point x="42" y="114" type="curve"/>
      <point x="36" y="11" type="line"/>
      <point x="105" y="126"/>
      <point x="219" y="305"/>
      <point x="270" y="305" type="curve" smooth="yes"/>
      <point x="295" y="305"/>
      <point x="289" y="261"/>
      <point x="284" y="234" type="curve" smooth="yes"/>
      <point x="247" y="30" type="line" smooth="yes"/>
      <point x="244" y="15"/>
      <point x="245" y="0"/>
    </contour>
    <contour>
      <point x="12" y="0" type="curve" smooth="yes"/>
      <point x="27" y="-2"/>
      <point x="30" y="3"/>
      <point x="36" y="11" type="curve"/>
      <point x="94" y="323" type="line" smooth="yes"/>
      <point x="97" y="340"/>
      <point x="91" y="350"/>
      <point x="74" y="350" type="curve" smooth="yes"/>
      <point x="54.0" y="350.0"/>
      <point x="46" y="341"/>
      <point x="43" y="323" type="curve" smooth="yes"/>
      <point x="-7" y="36" type="line" smooth="yes"/>
      <point x="-11" y="15"/>
      <point x="-10" y="3"/>
    </contour>
  </outline>
</glyph>
<glyph name="p" format="2">
  <advance width="384"/>
  <unicode hex="0070"/>
  <outline>
    <contour>
      <point x="-41" y="-300" type="curve" smooth="yes"/>
      <point x="-29" y="-300"/>
      <point x="-15" y="-292"/>
      <point x="-12" y="-277" type="curve" smooth="yes"/>
      <point x="95" y="327" type="line" smooth="yes"/>
      <point x="98" y="342"/>
      <point x="86" y="350"/>
      <point x="73" y="350" type="curve" smooth="yes"/>
      <point x="61" y="350"/>
      <point x="47" y="342"/>
      <point x="44" y="327" type="curve" smooth="yes"/>
      <point x="-63" y="-276" type="line" smooth="yes"/>
      <point x="-66" y="-292"/>
      <point x="-54" y="-300"/>
    </contour>
    <contour>
      <point x="336" y="277" type="curve" smooth="yes"/>
      <point x="336" y="328"/>
      <point x="316" y="354"/>
      <point x="277" y="354" type="curve" smooth="yes"/>
      <point x="194" y="354"/>
      <point x="71" y="193"/>
      <point x="18" y="49" type="curve"/>
      <point x="54" y="49" type="line"/>
      <point x="89" y="139"/>
      <point x="232" y="303"/>
      <point x="268" y="303" type="curve" smooth="yes"/>
      <point x="286" y="303"/>
      <point x="286" y="288"/>
      <point x="286" y="272" type="curve" smooth="yes"/>
      <point x="286" y="118"/>
      <point x="210" y="49"/>
      <point x="121" y="49" type="curve"/>
      <point x="29" y="49" type="line"/>
      <point x="22" y="0" type="line"/>
      <point x="121" y="0" type="line"/>
      <point x="257" y="0"/>
      <point x="336" y="117"/>
    </contour>
  </outline>
</glyph>
<glyph name="t" format="2">
  <advance width="241"/>
  <unicode hex="0074"/>
  <outline>
    <contour>
      <point x="57" y="0" type="curve" smooth="yes"/>
      <point x="70" y="0"/>
      <point x="83" y="7"/>
      <point x="86" y="23" type="curve" smooth="yes"/>
      <point x="176" y="540" type="line" smooth="yes"/>
      <point x="179" y="558"/>
      <point x="165" y="568"/>
      <point x="151" y="568" type="curve" smooth="yes"/>
      <point x="140" y="568"/>
      <point x="130" y="561"/>
      <point x="127" y="547" type="curve" smooth="yes"/>
      <point x="34" y="24" type="line" smooth="yes"/>
      <point x="31" y="8"/>
      <point x="44" y="0"/>
    </contour>
    <contour>
      <point x="-8" y="328" type="curve" smooth="yes"/>
      <point x="-8" y="316"/>
      <point x="-2" y="305"/>
      <point x="18" y="305" type="curve" smooth="yes"/>
      <point x="221" y="305" type="line" smooth="yes"/>
      <point x="241" y="305"/>
      <point x="247" y="316"/>
      <point x="247" y="328" type="curve" smooth="yes"/>
      <point x="247" y="340"/>
      <point x="241" y="350"/>
      <point x="221" y="350" type="curve" smooth="yes"/>
      <point x="18" y="350" type="line" smooth="yes"/>
      <point x="-2" y="350"/>
      <point x="-8" y="340"/>
    </contour>
  </outline>
</glyph>
<glyph name="v" format="2">
  <advance width="391"/>
  <unicode hex="0076"/>
  <outline>
    <contour>
      <point x="53" y="-4" type="curve" smooth="yes"/>
      <point x="142" y="-4"/>
      <point x="261" y="154"/>
      <point x="334" y="322" type="curve"/>
      <point x="332" y="341" type="line"/>
      <point x="330" y="344"/>
      <point x="325" y="350"/>
      <point x="314" y="350" type="curve" smooth="yes"/>
      <point x="296" y="350"/>
      <point x="288" y="337"/>
      <point x="278" y="315" type="curve" smooth="yes"/>
      <point x="219" y="188"/>
      <point x="106" y="46"/>
      <point x="68" y="46" type="curve" smooth="yes"/>
      <point x="49" y="46"/>
      <point x="46" y="64"/>
      <point x="56" y="117" type="curve" smooth="yes"/>
      <point x="94" y="320" type="line" smooth="yes"/>
      <point x="98" y="340"/>
      <point x="86" y="350"/>
      <point x="73" y="350" type="curve" smooth="yes"/>
      <point x="61" y="350"/>
      <point x="46" y="341"/>
      <point x="43" y="323" type="curve" smooth="yes"/>
      <point x="6" y="117" type="line" smooth="yes"/>
      <point x="-9" y="34"/>
      <point x="6" y="-4"/>
    </contour>
    <contour>
      <point x="390" y="215" type="curve" smooth="yes"/>
      <point x="402" y="225"/>
      <point x="401" y="241"/>
      <point x="388" y="260" type="curve" smooth="yes"/>
      <point x="332" y="341" type="line"/>
      <point x="295" y="304" type="line"/>
      <point x="347" y="229" type="line" smooth="yes"/>
      <point x="359" y="211"/>
      <point x="378" y="205"/>
    </contour>
  </outline>
</glyph>
<glyph name="x" format="2">
  <advance width="327"/>
  <unicode hex="0078"/>
  <outline>
    <contour>
      <point x="-38" y="8" type="curve" smooth="yes"/>
      <point x="-30" y="-1"/>
      <point x="-14" y="-4"/>
      <point x="0" y="10" type="curve" smooth="yes"/>
      <point x="142" y="151" type="line"/>
      <point x="154" y="161" type="line"/>
      <point x="304" y="308" type="line" smooth="yes"/>
      <point x="318" y="321"/>
      <point x="316" y="336"/>
      <point x="308" y="344" type="curve" smooth="yes"/>
      <point x="299" y="353"/>
      <point x="282" y="355"/>
      <point x="268" y="341" type="curve" smooth="yes"/>
      <point x="124" y="197" type="line"/>
      <point x="115" y="193" type="line"/>
      <point x="-33" y="46" type="line" smooth="yes"/>
      <point x="-47" y="32"/>
      <point x="-47" y="17"/>
    </contour>
    <contour>
      <point x="252" y="4" type="curve" smooth="yes"/>
      <point x="266" y="15"/>
      <point x="265" y="28"/>
      <point x="255" y="43" type="curve" smooth="yes"/>
      <point x="154" y="191" type="line"/>
      <point x="55" y="335" type="line" smooth="yes"/>
      <point x="44" y="351"/>
      <point x="29" y="354"/>
      <point x="17" y="344" type="curve" smooth="yes"/>
      <point x="3" y="333"/>
      <point x="4" y="322"/>
      <point x="15" y="305" type="curve" smooth="yes"/>
      <point x="116" y="158" type="line"/>
      <point x="215" y="13" type="line" smooth="yes"/>
      <point x="225" y="-1"/>
      <point x="240" y="-6"/>
    </contour>
  </outline>
</glyph>
<glyph name="z" format="2">
  <advance width="343"/>
  <unicode hex="007A"/>
  <outline>
    <contour>
      <point x="-35" y="24" type="curve" smooth="yes"/>
      <point x="-35" y="11"/>
      <point x="-24" y="0"/>
      <point x="-11" y="0" type="curve"/>
      <point x="6" y="10" type="line"/>
      <point x="314" y="308" type="line"/>
      <point x="319" y="313"/>
      <point x="323" y="317"/>
      <point x="323" y="327" type="curve" smooth="yes"/>
      <point x="323" y="342"/>
      <point x="311" y="350"/>
      <point x="297" y="350" type="curve"/>
      <point x="281" y="341" type="line"/>
      <point x="-24" y="49" type="line" smooth="yes"/>
      <point x="-32" y="41"/>
      <point x="-35" y="32"/>
    </contour>
    <contour>
      <point x="267" y="25" type="curve" smooth="yes"/>
      <point x="267" y="37"/>
      <point x="261" y="50"/>
      <point x="241" y="50" type="curve" smooth="yes"/>
      <point x="9" y="50" type="line"/>
      <point x="-11" y="0" type="line"/>
      <point x="241" y="0" type="line" smooth="yes"/>
      <point x="261" y="0"/>
      <point x="267" y="13"/>
    </contour>
    <contour>
      <point x="21" y="325" type="curve" smooth="yes"/>
      <point x="21" y="313"/>
      <point x="27" y="300"/>
      <point x="47" y="300" type="curve" smooth="yes"/>
      <point x="275" y="300" type="line"/>
      <point x="297" y="350" type="line"/>
      <point x="47" y="350" type="line" smooth="yes"/>
      <point x="27" y="350"/>
      <point x="21" y="337"/>
    </contour>
  </outline>
</glyph>
<glyph name="asciitilde" format="2">
  <advance width="460"/>
  <unicode hex="007E"/>
  <outline>
    <contour>
      <point x="250" y="158" type="curve" smooth="yes"/>
      <point x="282" y="158"/>
      <point x="302" y="168"/>
      <point x="323" y="177" type="curve" smooth="yes"/>
      <point x="341" y="185"/>
      <point x="349" y="191"/>
      <point x="349" y="202" type="curve" smooth="yes"/>
      <point x="349" y="213"/>
      <point x="337" y="233"/>
      <point x="320" y="225" type="curve" smooth="yes"/>
      <point x="301" y="216"/>
      <point x="288" y="203"/>
      <point x="258" y="203" type="curve" smooth="yes"/>
      <point x="230" y="203"/>
      <point x="187" y="241"/>
      <point x="156" y="241" type="curve" smooth="yes"/>
      <point x="130" y="241"/>
      <point x="113" y="232"/>
      <point x="95" y="225" type="curve" smooth="yes"/>
      <point x="77" y="218"/>
      <point x="68" y="213"/>
      <point x="68" y="202" type="curve" smooth="yes"/>
      <point x="68" y="190"/>
      <point x="78" y="169"/>
      <point x="96" y="177" type="curve" smooth="yes"/>
      <point x="111" y="184"/>
      <point x="125" y="196"/>
      <point x="148" y="196" type="curve" smooth="yes"/>
      <point x="179" y="196"/>
      <point x="222" y="158"/>
    </contour>
  </outline>
</glyph>
<glyph name="plusminus" format="2">
  <advance width="430"/>
  <unicode hex="00B1"/>
  <outline>
    <contour>
      <point x="243" y="345" type="line" smooth="yes"/>
      <point x="246" y="364"/>
      <point x="234" y="375"/>
      <point x="222" y="375" type="curve" smooth="yes"/>
      <point x="212" y="375"/>
      <point x="202" y="368"/>
      <point x="199" y="352" type="curve" smooth="yes"/>
      <point x="171" y="196" type="line" smooth="yes"/>
      <point x="168" y="177"/>
      <point x="180" y="166"/>
      <point x="192" y="166" type="curve" smooth="yes"/>
      <point x="202" y="166"/>
      <point x="212" y="173"/>
      <point x="215" y="189" type="curve" smooth="yes"/>
    </contour>
    <contour>
      <point x="278" y="97" type="line" smooth="yes"/>
      <point x="296" y="97"/>
      <point x="305" y="108"/>
      <point x="305" y="120" type="curve" smooth="yes"/>
      <point x="305" y="131"/>
      <point x="296" y="142"/>
      <point x="278" y="142" type="curve" smooth="yes"/>
      <point x="81" y="142" type="line" smooth="yes"/>
      <point x="63" y="142"/>
      <point x="54" y="131"/>
      <point x="54" y="120" type="curve" smooth="yes"/>
      <point x="54" y="109"/>
      <point x="63" y="97"/>
      <point x="81" y="97" type="curve" smooth="yes"/>
    </contour>
    <contour>
      <point x="304" y="248" type="line" smooth="yes"/>
      <point x="322" y="248"/>
      <point x="331" y="260"/>
      <point x="331" y="271" type="curve" smooth="yes"/>
      <point x="331" y="282"/>
      <point x="322" y="293"/>
      <point x="304" y="293" type="curve" smooth="yes"/>
      <point x="107" y="293" type="line" smooth="yes"/>
      <point x="89" y="293"/>
      <point x="80" y="282"/>
      <point x="80" y="271" type="curve" smooth="yes"/>
      <point x="80" y="260"/>
      <point x="89" y="248"/>
      <point x="107" y="248" type="curve" smooth="yes"/>
    </contour>
  </outline>
</glyph>
<glyph name="approxequal" format="2">
  <advance width="460"/>
  <unicode hex="2248"/>
  <outline>
    <contour>
      <point x="262" y="227" type="curve" smooth="yes"/>
      <point x="294" y="227"/>
      <point x="314" y="237"/>
      <point x="335" y="246" type="curve" smooth="yes"/>
      <point x="353" y="254"/>
      <point x="361" y="260"/>
      <point x="361" y="271" type="curve" smooth="yes"/>
      <point x="361" y="282"/>
      <point x="349" y="302"/>
      <point x="332" y="294" type="curve" smooth="yes"/>
      <point x="313" y="285"/>
      <point x="300" y="272"/>
      <point x="270" y="272" type="curve" smooth="yes"/>
      <point x="242" y="272"/>
      <point x="199" y="310"/>
      <point x="168" y="310" type="curve" smooth="yes"/>
      <point x="142" y="310"/>
      <point x="125" y="301"/>
      <point x="107" y="294" type="curve" smooth="yes"/>
      <point x="89" y="287"/>
      <point x="80" y="282"/>
      <point x="80" y="271" type="curve" smooth="yes"/>
      <point x="80" y="259"/>
      <point x="90" y="238"/>
      <point x="108" y="246" type="curve" smooth="yes"/>
      <point x="123" y="253"/>
      <point x="137" y="265"/>
      <point x="160" y="265" type="curve" smooth="yes"/>
      <point x="191" y="265"/>
      <point x="234" y="227"/>
    </contour>
    <contour>
      <point x="236" y="76" type="curve" smooth="yes"/>
      <point x="268" y="76"/>
      <point x="288" y="86"/>
      <point x="309" y="95" type="curve" smooth="yes"/>
      <point x="327" y="103"/>
      <point x="335" y="109"/>
      <point x="335" y="120" type="curve" smooth="yes"/>
      <point x="335" y="131"/>
      <point x="323" y="151"/>
      <point x="306" y="143" type="curve" smooth="yes"/>
      <point x="287" y="134"/>
      <point x="274" y="121"/>
      <point x="244" y="121" type="curve" smooth="yes"/>
      <point x="216" y="121"/>
      <point x="173" y="159"/>
      <point x="142" y="159" type="curve" smooth="yes"/>
      <point x="116" y="159"/>
      <point x="99" y="150"/>
      <point x="81" y="143" type="curve" smooth="yes"/>
      <point x="63" y="136"/>
      <point x="54" y="131"/>
      <point x="54" y="120" type="curve" smooth="yes"/>
      <point x="54" y="108"/>
      <point x="64" y="87"/>
      <point x="82" y="95" type="curve" smooth="yes"/>
      <point x="97" y="102"/>
      <point x="111" y="114"/>
      <point x="134" y="114" type="curve" smooth="yes"/>
      <point x="165" y="114"/>
      <point x="208" y="76"/>
    </contour>
  </outline>
</glyph>
<glyph name=".notdef" format="2">
  <advance width="625"/>
  <outline>
    <contour>
      <point x="457" y="0" type="line" smooth="yes"/>
      <point x="468" y="0"/>
      <point x="479" y="12"/>
      <point x="482" y="27" type="curve" smooth="yes"/>
      <point x="596" y="673" type="line" smooth="yes"/>
      <point x="599" y="689"/>
      <point x="592" y="700"/>
      <point x="578" y="700" type="curve" smooth="yes"/>
      <point x="182" y="700" type="line" smooth="yes"/>
      <point x="165" y="700"/>
      <point x="154" y="689"/>
      <point x="151" y="673" type="curve" smooth="yes"/>
      <point x="37" y="27" type="line" smooth="yes"/>
      <point x="34" y="12"/>
      <point x="42" y="0"/>
      <point x="61" y="0" type="curve" smooth="yes"/>
    </contour>
    <contour>
      <point x="91" y="45" type="line"/>
      <point x="199" y="655" type="line"/>
      <point x="542" y="655" type="line"/>
      <point x="435" y="45" type="line"/>
    </contour>
  </outline>
</glyph>
<glyph name="a.sc" format="2">
  <advance width="323"/>
  <guideline x="209" y="396" angle="0" identifier="IWP0CKaMnU"/>
  <outline>
    <contour>
      <point x="204" y="359" type="line"/>
      <point x="206" y="365" type="line"/>
      <point x="210" y="381"/>
      <point x="200" y="396"/>
      <point x="182" y="396" type="curve" smooth="yes"/>
      <point x="167" y="396"/>
      <point x="162" y="387"/>
      <point x="157" y="377" type="curve" smooth="yes"/>
      <point x="-21" y="35" type="line" smooth="yes"/>
      <point x="-30" y="18"/>
      <point x="-18" y="0"/>
      <point x="-1" y="0" type="curve" smooth="yes"/>
      <point x="14" y="0"/>
      <point x="20" y="6"/>
      <point x="28" y="21" type="curve" smooth="yes"/>
    </contour>
    <contour>
      <point x="63" y="175" type="line"/>
      <point x="204" y="175" type="line"/>
      <point x="200" y="216" type="line"/>
      <point x="86" y="216" type="line"/>
    </contour>
    <contour>
      <point x="207" y="378" type="line"/>
      <point x="158" y="358" type="line"/>
      <point x="187" y="25" type="line" smooth="yes"/>
      <point x="188" y="13"/>
      <point x="194" y="0"/>
      <point x="213" y="0" type="curve" smooth="yes"/>
      <point x="228" y="0"/>
      <point x="239" y="10"/>
      <point x="237" y="28" type="curve" smooth="yes"/>
    </contour>
  </outline>
</glyph>
<glyph name="b.sc" format="2">
  <advance width="335"/>
  <outline>
    <contour>
      <point x="33" y="0" type="line"/>
      <point x="191" y="-1"/>
      <point x="229" y="18"/>
      <point x="243" y="92" type="curve" smooth="yes"/>
      <point x="257" y="175"/>
      <point x="168" y="224"/>
      <point x="74" y="224" type="curve"/>
      <point x="66" y="171" type="line"/>
      <point x="148" y="171"/>
      <point x="201" y="144"/>
      <point x="194" y="100" type="curve" smooth="yes"/>
      <point x="186" y="59"/>
      <point x="151" y="49"/>
      <point x="41" y="50" type="curve"/>
    </contour>
    <contour>
      <point x="119" y="363" type="line" smooth="yes"/>
      <point x="123" y="384"/>
      <point x="112" y="396"/>
      <point x="97" y="396" type="curve" smooth="yes"/>
      <point x="82" y="396"/>
      <point x="72" y="387"/>
      <point x="69" y="369" type="curve" smooth="yes"/>
      <point x="10" y="32" type="line" smooth="yes"/>
      <point x="7" y="15"/>
      <point x="18" y="0"/>
      <point x="34" y="0" type="curve" smooth="yes"/>
      <point x="46" y="0"/>
      <point x="57" y="8"/>
      <point x="60" y="27" type="curve" smooth="yes"/>
    </contour>
    <contour>
      <point x="69" y="171" type="line"/>
      <point x="229" y="171"/>
      <point x="264" y="212"/>
      <point x="276" y="281" type="curve" smooth="yes"/>
      <point x="290" y="360"/>
      <point x="215" y="396"/>
      <point x="96" y="396" type="curve"/>
      <point x="86" y="345" type="line"/>
      <point x="189" y="346"/>
      <point x="234" y="329"/>
      <point x="226" y="286" type="curve" smooth="yes"/>
      <point x="220" y="247"/>
      <point x="201" y="224"/>
      <point x="78" y="224" type="curve"/>
    </contour>
  </outline>
</glyph>
<glyph name="c.sc" format="2">
  <advance width="362"/>
  <outline>
    <contour>
      <point x="105" y="0" type="curve" smooth="yes"/>
      <point x="155" y="0"/>
      <point x="196" y="31"/>
      <point x="245" y="103" type="curve" smooth="yes"/>
      <point x="259" y="125"/>
      <point x="259" y="130"/>
      <point x="259" y="135" type="curve" smooth="yes"/>
      <point x="259" y="148"/>
      <point x="250" y="158"/>
      <point x="238" y="158" type="curve" smooth="yes"/>
      <point x="224" y="158"/>
      <point x="218" y="152"/>
      <point x="205" y="134" type="curve" smooth="yes"/>
      <point x="162" y="72"/>
      <point x="136" y="50"/>
      <point x="104" y="50" type="curve" smooth="yes"/>
      <point x="79" y="50"/>
      <point x="76" y="71"/>
      <point x="76" y="92" type="curve" smooth="yes"/>
      <point x="76" y="122"/>
      <point x="84" y="180"/>
      <point x="90" y="209" type="curve" smooth="yes"/>
      <point x="104" y="278"/>
      <point x="119" y="346"/>
      <point x="245" y="346" type="curve" smooth="yes"/>
      <point x="276" y="346"/>
      <point x="282" y="345"/>
      <point x="290" y="349" type="curve" smooth="yes"/>
      <point x="303" y="356"/>
      <point x="305" y="381"/>
      <point x="292" y="390" type="curve" smooth="yes"/>
      <point x="285" y="394"/>
      <point x="277" y="396"/>
      <point x="245" y="396" type="curve" smooth="yes"/>
      <point x="81" y="396"/>
      <point x="55" y="301"/>
      <point x="39" y="209" type="curve" smooth="yes"/>
      <point x="37" y="197"/>
      <point x="26" y="131"/>
      <point x="26" y="93" type="curve" smooth="yes"/>
      <point x="26" y="51"/>
      <point x="40" y="0"/>
    </contour>
  </outline>
</glyph>
<glyph name="e.sc" format="2">
  <advance width="368"/>
  <outline>
    <contour>
      <point x="118" y="360" type="line" smooth="yes"/>
      <point x="121" y="378"/>
      <point x="116" y="396"/>
      <point x="97" y="396" type="curve" smooth="yes"/>
      <point x="79" y="396"/>
      <point x="72" y="388"/>
      <point x="69" y="369" type="curve" smooth="yes"/>
      <point x="9" y="29" type="line" smooth="yes"/>
      <point x="7" y="15"/>
      <point x="16" y="0"/>
      <point x="33" y="0" type="curve" smooth="yes"/>
      <point x="52" y="0"/>
      <point x="57" y="14"/>
      <point x="59" y="24" type="curve" smooth="yes"/>
    </contour>
    <contour>
      <point x="32" y="0" type="line"/>
      <point x="220" y="0" type="line" smooth="yes"/>
      <point x="237" y="0"/>
      <point x="246" y="14"/>
      <point x="246" y="27" type="curve" smooth="yes"/>
      <point x="246" y="40"/>
      <point x="237" y="53"/>
      <point x="220" y="53" type="curve" smooth="yes"/>
      <point x="41" y="53" type="line"/>
    </contour>
    <contour>
      <point x="63" y="174" type="line"/>
      <point x="235" y="174" type="line" smooth="yes"/>
      <point x="252" y="174"/>
      <point x="261" y="186"/>
      <point x="261" y="198" type="curve" smooth="yes"/>
      <point x="261" y="211"/>
      <point x="252" y="224"/>
      <point x="235" y="224" type="curve" smooth="yes"/>
      <point x="71" y="224" type="line"/>
    </contour>
    <contour>
      <point x="87" y="343" type="line"/>
      <point x="282" y="343" type="line" smooth="yes"/>
      <point x="298" y="343"/>
      <point x="307" y="354"/>
      <point x="307" y="369" type="curve" smooth="yes"/>
      <point x="307" y="384"/>
      <point x="298" y="396"/>
      <point x="282" y="396" type="curve" smooth="yes"/>
      <point x="96" y="396" type="line"/>
    </contour>
  </outline>
</glyph>
<glyph name="exclamdown.c2sc" format="2">
  <advance width="246"/>
  <outline>
    <contour>
      <point x="131" y="420" type="curve" smooth="yes"/>
      <point x="113" y="420"/>
      <point x="97" y="404"/>
      <point x="97" y="387" type="curve" smooth="yes"/>
      <point x="97" y="370"/>
      <point x="113" y="355"/>
      <point x="131" y="355" type="curve" smooth="yes"/>
      <point x="149" y="355"/>
      <point x="162" y="371"/>
      <point x="162" y="387" type="curve" smooth="yes"/>
      <point x="162" y="403"/>
      <point x="149" y="420"/>
    </contour>
    <contour>
      <point x="41" y="29" type="line" smooth="yes"/>
      <point x="38" y="14"/>
      <point x="47" y="0"/>
      <point x="61" y="0" type="curve" smooth="yes"/>
      <point x="79" y="0"/>
      <point x="88" y="10"/>
      <point x="91" y="24" type="curve" smooth="yes"/>
      <point x="121" y="191" type="line" smooth="yes"/>
      <point x="124" y="208"/>
      <point x="112" y="221"/>
      <point x="99" y="221" type="curve" smooth="yes"/>
      <point x="84" y="221"/>
      <point x="74" y="211"/>
      <point x="71" y="197" type="curve" smooth="yes"/>
    </contour>
  </outline>
</glyph>
<glyph name="five.c2sc" format="2">
  <advance width="361"/>
  <outline>
    <contour>
      <point x="66" y="192" type="line"/>
      <point x="96" y="200"/>
      <point x="115" y="204"/>
      <point x="134" y="204" type="curve" smooth="yes"/>
      <point x="182" y="204"/>
      <point x="201" y="174"/>
      <point x="201" y="149" type="curve" smooth="yes"/>
      <point x="201" y="109"/>
      <point x="154" y="44"/>
      <point x="94" y="44" type="curve" smooth="yes"/>
      <point x="78" y="44"/>
      <point x="66" y="50"/>
      <point x="58" y="57" type="curve" smooth="yes"/>
      <point x="52" y="63"/>
      <point x="44" y="65"/>
      <point x="38" y="65" type="curve" smooth="yes"/>
      <point x="26" y="65"/>
      <point x="14" y="56"/>
      <point x="14" y="44" type="curve" smooth="yes"/>
      <point x="14" y="38"/>
      <point x="18" y="29"/>
      <point x="25" y="21" type="curve"/>
      <point x="41" y="7"/>
      <point x="65" y="-4"/>
      <point x="94" y="-4" type="curve" smooth="yes"/>
      <point x="186" y="-4"/>
      <point x="251" y="89"/>
      <point x="251" y="150" type="curve" smooth="yes"/>
      <point x="251" y="203"/>
      <point x="205" y="252"/>
      <point x="131" y="252" type="curve" smooth="yes"/>
      <point x="110" y="252"/>
      <point x="89" y="248"/>
      <point x="62" y="239" type="curve"/>
    </contour>
    <contour>
      <point x="121" y="371" type="line"/>
      <point x="106" y="395" type="line"/>
      <point x="100" y="398"/>
      <point x="87" y="394"/>
      <point x="82" y="389" type="curve"/>
      <point x="76" y="386"/>
      <point x="73" y="379"/>
      <point x="71" y="372" type="curve"/>
      <point x="43" y="216" type="line" smooth="yes"/>
      <point x="40" y="202"/>
      <point x="52" y="193"/>
      <point x="67" y="193" type="curve" smooth="yes"/>
      <point x="78" y="193"/>
      <point x="92" y="200"/>
      <point x="94" y="214" type="curve" smooth="yes"/>
    </contour>
    <contour>
      <point x="93" y="352" type="line"/>
      <point x="265" y="352" type="line" smooth="yes"/>
      <point x="283" y="352"/>
      <point x="290" y="362"/>
      <point x="290" y="373" type="curve" smooth="yes"/>
      <point x="290" y="383"/>
      <point x="284" y="396"/>
      <point x="265" y="396" type="curve" smooth="yes"/>
      <point x="93" y="396" type="line"/>
    </contour>
  </outline>
</glyph>
<glyph name="i.sc" format="2">
  <advance width="243"/>
  <outline>
    <contour>
      <point x="43" y="42" type="line"/>
      <point x="94" y="42" type="line"/>
      <point x="149" y="358" type="line"/>
      <point x="98" y="358" type="line"/>
    </contour>
    <contour>
      <point x="95" y="0" type="line" smooth="yes"/>
      <point x="112" y="0"/>
      <point x="121" y="12"/>
      <point x="121" y="25" type="curve" smooth="yes"/>
      <point x="121" y="38"/>
      <point x="112" y="50"/>
      <point x="95" y="50" type="curve" smooth="yes"/>
      <point x="39" y="50" type="line" smooth="yes"/>
      <point x="22" y="50"/>
      <point x="13" y="38"/>
      <point x="13" y="25" type="curve" smooth="yes"/>
      <point x="13" y="12"/>
      <point x="22" y="0"/>
      <point x="39" y="0" type="curve" smooth="yes"/>
    </contour>
    <contour>
      <point x="151" y="345" type="line" smooth="yes"/>
      <point x="169" y="345"/>
      <point x="177" y="357"/>
      <point x="177" y="370" type="curve" smooth="yes"/>
      <point x="177" y="383"/>
      <point x="169" y="396"/>
      <point x="151" y="396" type="curve" smooth="yes"/>
      <point x="96" y="396" type="line" smooth="yes"/>
      <point x="78" y="396"/>
      <point x="70" y="383"/>
      <point x="70" y="370" type="curve" smooth="yes"/>
      <point x="70" y="357"/>
      <point x="78" y="345"/>
      <point x="96" y="345" type="curve" smooth="yes"/>
    </contour>
  </outline>
</glyph>
<glyph name="k.sc" format="2">
  <advance width="309"/>
  <outline>
    <contour>
      <point x="120" y="363" type="line" smooth="yes"/>
      <point x="123" y="382"/>
      <point x="115" y="396"/>
      <point x="98" y="396" type="curve" smooth="yes"/>
      <point x="83" y="396"/>
      <point x="73" y="385"/>
      <point x="70" y="369" type="curve" smooth="yes"/>
      <point x="10" y="32" type="line" smooth="yes"/>
      <point x="7" y="16"/>
      <point x="18" y="0"/>
      <point x="34" y="0" type="curve" smooth="yes"/>
      <point x="52" y="0"/>
      <point x="58" y="15"/>
      <point x="60" y="28" type="curve" smooth="yes"/>
    </contour>
    <contour>
      <point x="112" y="210" type="line"/>
      <point x="73" y="210" type="line"/>
      <point x="73" y="179" type="line"/>
      <point x="186" y="16" type="line" smooth="yes"/>
      <point x="193" y="6"/>
      <point x="202" y="0"/>
      <point x="212" y="0" type="curve" smooth="yes"/>
      <point x="224" y="0"/>
      <point x="233" y="8"/>
      <point x="235" y="18" type="curve"/>
      <point x="238" y="25"/>
      <point x="236" y="32"/>
      <point x="229" y="42" type="curve" smooth="yes"/>
    </contour>
    <contour>
      <point x="73" y="202" type="line"/>
      <point x="108" y="202" type="line"/>
      <point x="282" y="346" type="line" smooth="yes"/>
      <point x="291" y="353"/>
      <point x="296" y="362"/>
      <point x="298" y="369" type="curve" smooth="yes"/>
      <point x="300" y="383"/>
      <point x="290" y="396"/>
      <point x="276" y="396" type="curve" smooth="yes"/>
      <point x="269" y="396"/>
      <point x="259" y="393"/>
      <point x="250" y="385" type="curve" smooth="yes"/>
      <point x="73" y="238" type="line"/>
    </contour>
  </outline>
</glyph>
<glyph name="l.sc" format="2">
  <advance width="318"/>
  <outline>
    <contour>
      <point x="119" y="363" type="line" smooth="yes"/>
      <point x="122" y="381"/>
      <point x="115" y="395"/>
      <point x="97" y="395" type="curve" smooth="yes"/>
      <point x="82" y="395"/>
      <point x="72" y="385"/>
      <point x="69" y="369" type="curve" smooth="yes"/>
      <point x="9" y="29" type="line" smooth="yes"/>
      <point x="6" y="14"/>
      <point x="16" y="0"/>
      <point x="34" y="0" type="curve" smooth="yes"/>
      <point x="52" y="0"/>
      <point x="57" y="14"/>
      <point x="59" y="24" type="curve" smooth="yes"/>
    </contour>
    <contour>
      <point x="33" y="0" type="line"/>
      <point x="221" y="0" type="line" smooth="yes"/>
      <point x="237" y="0"/>
      <point x="246" y="14"/>
      <point x="246" y="27" type="curve" smooth="yes"/>
      <point x="246" y="40"/>
      <point x="237" y="53"/>
      <point x="221" y="53" type="curve" smooth="yes"/>
      <point x="33" y="53" type="line"/>
    </contour>
  </outline>
</glyph>
<glyph name="m.sc" format="2">
  <advance width="533"/>
  <outline>
    <contour>
      <point x="186" y="327" type="line"/>
      <point x="183" y="396" type="line"/>
      <point x="168" y="396"/>
      <point x="162" y="388"/>
      <point x="154" y="373" type="curve" smooth="yes"/>
      <point x="-21" y="39" type="line" smooth="yes"/>
      <point x="-30" y="21"/>
      <point x="-21" y="0"/>
      <point x="-1" y="0" type="curve" smooth="yes"/>
      <point x="7" y="0"/>
      <point x="18" y="5"/>
      <point x="26" y="21" type="curve" smooth="yes"/>
    </contour>
    <contour>
      <point x="232" y="50" type="line"/>
      <point x="207" y="374" type="line" smooth="yes"/>
      <point x="206" y="385"/>
      <point x="200" y="396"/>
      <point x="183" y="396" type="curve"/>
      <point x="160" y="327" type="line"/>
      <point x="184" y="24" type="line" smooth="yes"/>
      <point x="185" y="11"/>
      <point x="191" y="0"/>
      <point x="208" y="0" type="curve"/>
    </contour>
    <contour>
      <point x="207" y="0" type="line"/>
      <point x="223" y="0"/>
      <point x="230" y="8"/>
      <point x="235" y="17" type="curve" smooth="yes"/>
      <point x="397" y="327" type="line"/>
      <point x="394" y="396" type="line"/>
      <point x="381" y="396"/>
      <point x="372" y="388"/>
      <point x="367" y="378" type="curve" smooth="yes"/>
      <point x="200" y="58" type="line"/>
    </contour>
    <contour>
      <point x="419" y="367" type="line" smooth="yes"/>
      <point x="418" y="384"/>
      <point x="408" y="396"/>
      <point x="394" y="396" type="curve"/>
      <point x="372" y="327" type="line"/>
      <point x="397" y="25" type="line" smooth="yes"/>
      <point x="398" y="12"/>
      <point x="406" y="0"/>
      <point x="423" y="0" type="curve" smooth="yes"/>
      <point x="439" y="0"/>
      <point x="448" y="13"/>
      <point x="447" y="28" type="curve" smooth="yes"/>
    </contour>
  </outline>
</glyph>
<glyph name="n.sc" format="2">
  <advance width="412"/>
  <outline>
    <contour>
      <point x="278" y="52" type="line"/>
      <point x="123" y="376" type="line" smooth="yes"/>
      <point x="118" y="387"/>
      <point x="111" y="396"/>
      <point x="95" y="396" type="curve"/>
      <point x="85" y="340" type="line"/>
      <point x="237" y="22" type="line" smooth="yes"/>
      <point x="242" y="12"/>
      <point x="250" y="0"/>
      <point x="264" y="0" type="curve"/>
    </contour>
    <contour>
      <point x="115" y="340" type="line"/>
      <point x="96" y="396" type="line"/>
      <point x="80" y="396"/>
      <point x="72" y="386"/>
      <point x="69" y="369" type="curve" smooth="yes"/>
      <point x="9" y="29" type="line" smooth="yes"/>
      <point x="7" y="15"/>
      <point x="16" y="0"/>
      <point x="33" y="0" type="curve" smooth="yes"/>
      <point x="50" y="0"/>
      <point x="57" y="13"/>
      <point x="59" y="26" type="curve" smooth="yes"/>
    </contour>
    <contour>
      <point x="265" y="0" type="line"/>
      <point x="280" y="0"/>
      <point x="288" y="12"/>
      <point x="290" y="22" type="curve" smooth="yes"/>
      <point x="349" y="363" type="line" smooth="yes"/>
      <point x="352" y="381"/>
      <point x="344" y="395"/>
      <point x="327" y="395" type="curve" smooth="yes"/>
      <point x="312" y="395"/>
      <point x="302" y="385"/>
      <point x="299" y="369" type="curve" smooth="yes"/>
      <point x="244" y="52" type="line"/>
    </contour>
  </outline>
</glyph>
<glyph name="p.sc" format="2">
  <advance width="300"/>
  <outline>
    <contour>
      <point x="72" y="185" type="line"/>
      <point x="163" y="185"/>
      <point x="286" y="178"/>
      <point x="286" y="283" type="curve" smooth="yes"/>
      <point x="286" y="363"/>
      <point x="222" y="396"/>
      <point x="96" y="396" type="curve"/>
      <point x="96" y="343" type="line"/>
      <point x="198" y="344"/>
      <point x="236" y="324"/>
      <point x="236" y="286" type="curve" smooth="yes"/>
      <point x="236" y="231"/>
      <point x="145" y="238"/>
      <point x="81" y="238" type="curve"/>
    </contour>
    <contour>
      <point x="119" y="365" type="line" smooth="yes"/>
      <point x="122" y="383"/>
      <point x="108" y="396"/>
      <point x="97" y="396" type="curve" smooth="yes"/>
      <point x="79" y="396"/>
      <point x="72" y="384"/>
      <point x="69" y="369" type="curve" smooth="yes"/>
      <point x="9" y="29" type="line" smooth="yes"/>
      <point x="7" y="15"/>
      <point x="16" y="0"/>
      <point x="33" y="0" type="curve" smooth="yes"/>
      <point x="50" y="0"/>
      <point x="57" y="14"/>
      <point x="59" y="24" type="curve" smooth="yes"/>
    </contour>
  </outline>
</glyph>
<glyph name="question.c2sc" format="2">
  <advance width="400"/>
  <outline>
    <contour>
      <point x="159" y="139" type="line"/>
      <point x="245" y="139"/>
      <point x="315" y="167"/>
      <point x="323" y="275" type="curve" smooth="yes"/>
      <point x="329" y="345"/>
      <point x="294" y="395"/>
      <point x="209" y="395" type="curve" smooth="yes"/>
      <point x="147" y="395"/>
      <point x="104" y="366"/>
      <point x="79" y="308" type="curve" smooth="yes"/>
      <point x="72" y="292"/>
      <point x="80" y="277"/>
      <point x="88" y="274" type="curve" smooth="yes"/>
      <point x="96" y="271"/>
      <point x="118" y="271"/>
      <point x="124" y="286" type="curve" smooth="yes"/>
      <point x="139" y="324"/>
      <point x="162" y="345"/>
      <point x="206" y="345" type="curve" smooth="yes"/>
      <point x="276" y="345"/>
      <point x="276" y="308"/>
      <point x="273" y="273" type="curve" smooth="yes"/>
      <point x="264" y="184"/>
      <point x="200" y="189"/>
      <point x="151" y="189" type="curve" smooth="yes"/>
      <point x="148" y="189"/>
      <point x="147" y="187"/>
      <point x="145" y="185" type="curve"/>
    </contour>
    <contour>
      <point x="119" y="-24" type="curve" smooth="yes"/>
      <point x="137" y="-24"/>
      <point x="153" y="-9"/>
      <point x="153" y="7" type="curve" smooth="yes"/>
      <point x="153" y="26"/>
      <point x="138" y="41"/>
      <point x="119" y="41" type="curve" smooth="yes"/>
      <point x="102" y="41"/>
      <point x="88" y="25"/>
      <point x="88" y="7" type="curve" smooth="yes"/>
      <point x="88" y="-8"/>
      <point x="102" y="-24"/>
    </contour>
    <contour>
      <point x="135" y="89" type="curve" smooth="yes"/>
      <point x="148" y="87"/>
      <point x="162" y="94"/>
      <point x="166" y="116" type="curve" smooth="yes"/>
      <point x="176" y="170" type="line" smooth="yes"/>
      <point x="177" y="177"/>
      <point x="170" y="189"/>
      <point x="150" y="189" type="curve" smooth="yes"/>
      <point x="139" y="189"/>
      <point x="127" y="181"/>
      <point x="125" y="170" type="curve" smooth="yes"/>
      <point x="115" y="116" type="line" smooth="yes"/>
      <point x="112" y="102"/>
      <point x="123" y="92"/>
    </contour>
  </outline>
</glyph>
<glyph name="s.sc" format="2">
  <advance width="357"/>
  <outline>
    <contour>
      <point x="100" y="0" type="line" smooth="yes"/>
      <point x="158" y="0"/>
      <point x="266" y="31"/>
      <point x="266" y="117" type="curve" smooth="yes"/>
      <point x="266" y="172"/>
      <point x="221" y="203"/>
      <point x="211" y="210" type="curve" smooth="yes"/>
      <point x="196" y="220"/>
      <point x="183" y="229"/>
      <point x="172" y="237" type="curve" smooth="yes"/>
      <point x="126" y="269"/>
      <point x="106" y="282"/>
      <point x="106" y="295" type="curve" smooth="yes"/>
      <point x="106" y="320"/>
      <point x="159" y="343"/>
      <point x="201" y="343" type="curve" smooth="yes"/>
      <point x="289" y="343" type="line" smooth="yes"/>
      <point x="303" y="343"/>
      <point x="314" y="356"/>
      <point x="314" y="370" type="curve" smooth="yes"/>
      <point x="314" y="391"/>
      <point x="298" y="396"/>
      <point x="289" y="396" type="curve" smooth="yes"/>
      <point x="202" y="396" type="line" smooth="yes"/>
      <point x="123" y="396"/>
      <point x="56" y="348"/>
      <point x="56" y="293" type="curve" smooth="yes"/>
      <point x="56" y="253"/>
      <point x="91" y="229"/>
      <point x="143" y="194" type="curve" smooth="yes"/>
      <point x="153" y="187"/>
      <point x="164" y="179"/>
      <point x="176" y="171" type="curve" smooth="yes"/>
      <point x="191" y="160"/>
      <point x="216" y="142"/>
      <point x="216" y="116" type="curve" smooth="yes"/>
      <point x="216" y="69"/>
      <point x="136" y="53"/>
      <point x="100" y="53" type="curve" smooth="yes"/>
      <point x="32" y="53" type="line" smooth="yes"/>
      <point x="18" y="53"/>
      <point x="7" y="39"/>
      <point x="7" y="26" type="curve" smooth="yes"/>
      <point x="7" y="5"/>
      <point x="24" y="0"/>
      <point x="32" y="0" type="curve" smooth="yes"/>
    </contour>
  </outline>
</glyph>
<glyph name="seven.c2sc" format="2">
  <advance width="363"/>
  <outline>
    <contour>
      <point x="245" y="372" type="line"/>
      <point x="248" y="383"/>
      <point x="241" y="396"/>
      <point x="221" y="396" type="curve" smooth="yes"/>
      <point x="212" y="396"/>
      <point x="199" y="389"/>
      <point x="197" y="377" type="curve" smooth="yes"/>
      <point x="135" y="26" type="line" smooth="yes"/>
      <point x="132" y="8"/>
      <point x="143" y="0"/>
      <point x="156" y="0" type="curve" smooth="yes"/>
      <point x="167" y="0"/>
      <point x="181" y="7"/>
      <point x="184" y="24" type="curve" smooth="yes"/>
    </contour>
    <contour>
      <point x="230" y="351" type="line"/>
      <point x="230" y="396" type="line"/>
      <point x="56" y="396" type="line" smooth="yes"/>
      <point x="39" y="396"/>
      <point x="30" y="384"/>
      <point x="30" y="374" type="curve" smooth="yes"/>
      <point x="30" y="363"/>
      <point x="39" y="351"/>
      <point x="56" y="351" type="curve" smooth="yes"/>
    </contour>
  </outline>
</glyph>
<glyph name="six.c2sc" format="2">
  <advance width="359"/>
  <outline>
    <contour>
      <point x="88" y="72" type="line"/>
      <point x="86" y="138"/>
      <point x="109" y="191"/>
      <point x="156" y="259" type="curve" smooth="yes"/>
      <point x="174" y="285"/>
      <point x="204" y="319"/>
      <point x="254" y="353" type="curve" smooth="yes"/>
      <point x="263" y="358"/>
      <point x="267" y="367"/>
      <point x="267" y="376" type="curve" smooth="yes"/>
      <point x="267" y="387"/>
      <point x="258" y="396"/>
      <point x="244" y="396" type="curve" smooth="yes"/>
      <point x="239" y="396"/>
      <point x="233" y="395"/>
      <point x="226" y="391" type="curve" smooth="yes"/>
      <point x="193" y="372"/>
      <point x="137" y="316"/>
      <point x="113" y="284" type="curve" smooth="yes"/>
      <point x="66" y="216"/>
      <point x="37" y="142"/>
      <point x="39" y="72" type="curve"/>
    </contour>
    <contour>
      <point x="39" y="81" type="line"/>
      <point x="39" y="36"/>
      <point x="74" y="-4"/>
      <point x="125" y="-4" type="curve" smooth="yes"/>
      <point x="198" y="-4"/>
      <point x="273" y="100"/>
      <point x="273" y="175" type="curve" smooth="yes"/>
      <point x="273" y="223"/>
      <point x="244" y="247"/>
      <point x="192" y="247" type="curve" smooth="yes"/>
      <point x="130" y="247"/>
      <point x="85" y="212"/>
      <point x="61" y="169" type="curve"/>
    </contour>
    <contour>
      <point x="124" y="44" type="curve" smooth="yes"/>
      <point x="104" y="44"/>
      <point x="88" y="58"/>
      <point x="88" y="94" type="curve" smooth="yes"/>
      <point x="88" y="145"/>
      <point x="126" y="199"/>
      <point x="191" y="199" type="curve" smooth="yes"/>
      <point x="215" y="199"/>
      <point x="224" y="193"/>
      <point x="224" y="172" type="curve" smooth="yes"/>
      <point x="224" y="121"/>
      <point x="166" y="44"/>
    </contour>
  </outline>
</glyph>
<glyph name="t.sc" format="2">
  <advance width="258"/>
  <outline>
    <contour>
      <point x="209" y="358" type="line"/>
      <point x="158" y="358" type="line"/>
      <point x="101" y="29" type="line" smooth="yes"/>
      <point x="99" y="15"/>
      <point x="107" y="0"/>
      <point x="125" y="0" type="curve" smooth="yes"/>
      <point x="143" y="0"/>
      <point x="149" y="14"/>
      <point x="151" y="24" type="curve" smooth="yes"/>
    </contour>
    <contour>
      <point x="279" y="342" type="line" smooth="yes"/>
      <point x="295" y="342"/>
      <point x="304" y="353"/>
      <point x="304" y="368" type="curve" smooth="yes"/>
      <point x="304" y="383"/>
      <point x="295" y="395"/>
      <point x="279" y="395" type="curve" smooth="yes"/>
      <point x="94" y="395" type="line" smooth="yes"/>
      <point x="77" y="395"/>
      <point x="68" y="383"/>
      <point x="68" y="368" type="curve" smooth="yes"/>
      <point x="68" y="353"/>
      <point x="77" y="342"/>
      <point x="94" y="342" type="curve" smooth="yes"/>
    </contour>
  </outline>
</glyph>
<glyph name="w.sc" format="2">
  <advance width="534"/>
  <outline>
    <contour>
      <point x="301" y="0" type="line"/>
      <point x="315" y="0"/>
      <point x="324" y="10"/>
      <point x="330" y="21" type="curve" smooth="yes"/>
      <point x="506" y="358" type="line" smooth="yes"/>
      <point x="515" y="375"/>
      <point x="504" y="396"/>
      <point x="487" y="396" type="curve" smooth="yes"/>
      <point x="474" y="396"/>
      <point x="463" y="386"/>
      <point x="456" y="373" type="curve" smooth="yes"/>
      <point x="294" y="63" type="line"/>
    </contour>
    <contour>
      <point x="112" y="63" type="line"/>
      <point x="87" y="369" type="line" smooth="yes"/>
      <point x="86" y="383"/>
      <point x="78" y="396"/>
      <point x="61" y="396" type="curve" smooth="yes"/>
      <point x="44" y="396"/>
      <point x="36" y="381"/>
      <point x="37" y="367" type="curve" smooth="yes"/>
      <point x="65" y="28" type="line" smooth="yes"/>
      <point x="66" y="14"/>
      <point x="75" y="0"/>
      <point x="90" y="0" type="curve"/>
    </contour>
    <contour>
      <point x="89" y="0" type="line"/>
      <point x="104" y="0"/>
      <point x="111" y="9"/>
      <point x="118" y="22" type="curve" smooth="yes"/>
      <point x="282" y="337" type="line"/>
      <point x="273" y="396" type="line"/>
      <point x="260" y="396"/>
      <point x="250" y="383"/>
      <point x="245" y="374" type="curve" smooth="yes"/>
      <point x="83" y="63" type="line"/>
    </contour>
    <contour>
      <point x="325" y="63" type="line"/>
      <point x="300" y="370" type="line" smooth="yes"/>
      <point x="299" y="384"/>
      <point x="288" y="396"/>
      <point x="272" y="396" type="curve"/>
      <point x="253" y="337" type="line"/>
      <point x="277" y="22" type="line" smooth="yes"/>
      <point x="278" y="10"/>
      <point x="288" y="0"/>
      <point x="302" y="0" type="curve"/>
    </contour>
  </outline>
</glyph>
<glyph name="z.sc" format="2">
  <advance width="406"/>
  <outline>
    <contour>
      <point x="338" y="351" type="line" smooth="yes"/>
      <point x="346" y="360"/>
      <point x="347" y="373"/>
      <point x="342" y="383" type="curve" smooth="yes"/>
      <point x="338" y="389"/>
      <point x="329" y="395"/>
      <point x="317" y="395" type="curve" smooth="yes"/>
      <point x="310" y="395"/>
      <point x="303" y="387"/>
      <point x="299" y="383" type="curve" smooth="yes"/>
      <point x="15" y="40" type="line" smooth="yes"/>
      <point x="10" y="33"/>
      <point x="5" y="23"/>
      <point x="10" y="13" type="curve" smooth="yes"/>
      <point x="14" y="5"/>
      <point x="23" y="0"/>
      <point x="38" y="0" type="curve" smooth="yes"/>
      <point x="46" y="0"/>
      <point x="52" y="6"/>
      <point x="56" y="10" type="curve" smooth="yes"/>
    </contour>
    <contour>
      <point x="37" y="0" type="line"/>
      <point x="258" y="0" type="line" smooth="yes"/>
      <point x="275" y="0"/>
      <point x="284" y="11"/>
      <point x="284" y="26" type="curve" smooth="yes"/>
      <point x="284" y="41"/>
      <point x="275" y="53"/>
      <point x="258" y="53" type="curve" smooth="yes"/>
      <point x="83" y="53" type="line"/>
    </contour>
    <contour>
      <point x="274" y="342" type="line"/>
      <point x="319" y="395" type="line"/>
      <point x="95" y="395" type="line" smooth="yes"/>
      <point x="78" y="395"/>
      <point x="69" y="381"/>
      <point x="69" y="368" type="curve" smooth="yes"/>
      <point x="69" y="355"/>
      <point x="78" y="342"/>
      <point x="95" y="342" type="curve" smooth="yes"/>
    </contour>
  </outline>
</glyph>
<glyph name="zero.c2sc" format="2">
  <advance width="336"/>
  <outline>
    <contour>
      <point x="80" y="-1" type="curve" smooth="yes"/>
      <point x="168" y="0"/>
      <point x="282" y="157"/>
      <point x="282" y="276" type="curve" smooth="yes"/>
      <point x="282" y="328"/>
      <point x="262" y="396"/>
      <point x="184" y="396" type="curve" smooth="yes"/>
      <point x="52" y="396"/>
      <point x="0" y="196"/>
      <point x="0" y="115" type="curve" smooth="yes"/>
      <point x="0" y="61"/>
      <point x="23" y="-1"/>
    </contour>
    <contour>
      <point x="80" y="47" type="curve" smooth="yes"/>
      <point x="64" y="47"/>
      <point x="50" y="67"/>
      <point x="50" y="111" type="curve" smooth="yes"/>
      <point x="50" y="193"/>
      <point x="101" y="348"/>
      <point x="186" y="348" type="curve" smooth="yes"/>
      <point x="223" y="348"/>
      <point x="232" y="315"/>
      <point x="232" y="278" type="curve" smooth="yes"/>
      <point x="232" y="152"/>
      <point x="120" y="47"/>
    </contour>
  </outline>
</glyph>
